<svg width="100" height="100" viewBox="0 0 100 100" fill="none" xmlns="http://www.w3.org/2000/svg">
<mask id="path-1-outside-1_1350_2977" maskUnits="userSpaceOnUse" x="7.72363" y="13.1807" width="79" height="58" fill="black">
<rect fill="white" x="7.72363" y="13.1807" width="79" height="58"/>
<path fill-rule="evenodd" clip-rule="evenodd" d="M37.1497 15.1806H50.9644V21.491H44.3583V27.8013H30.5436V21.4909H37.1497V15.1806ZM37.15 27.8016H23.3353V34.1119H16.7309V39.3191H10.7234V46.4681H16.7309V51.4656H23.9357V57.7759H30.5436V62.5088H37.1497V68.8191H50.9644V62.5087H44.3583V56.1984H37.7504V51.4654H30.5456V46.4681H84V39.3191H30.5456V34.112H37.15V27.8016Z"/>
</mask>
<path fill-rule="evenodd" clip-rule="evenodd" d="M37.1497 15.1806H50.9644V21.491H44.3583V27.8013H30.5436V21.4909H37.1497V15.1806ZM37.15 27.8016H23.3353V34.1119H16.7309V39.3191H10.7234V46.4681H16.7309V51.4656H23.9357V57.7759H30.5436V62.5088H37.1497V68.8191H50.9644V62.5087H44.3583V56.1984H37.7504V51.4654H30.5456V46.4681H84V39.3191H30.5456V34.112H37.15V27.8016Z" fill="white"/>
<path d="M50.9644 15.1806H52.9644V13.1806H50.9644V15.1806ZM37.1497 15.1806V13.1806H35.1497V15.1806H37.1497ZM50.9644 21.491V23.491H52.9644V21.491H50.9644ZM44.3583 21.491V19.491H42.3583V21.491H44.3583ZM44.3583 27.8013V29.8013H46.3583V27.8013H44.3583ZM30.5436 27.8013H28.5436V29.8013H30.5436V27.8013ZM30.5436 21.4909V19.4909H28.5436V21.4909H30.5436ZM37.1497 21.4909V23.4909H39.1497V21.4909H37.1497ZM23.3353 27.8016V25.8016H21.3353V27.8016H23.3353ZM37.15 27.8016H39.15V25.8016H37.15V27.8016ZM23.3353 34.1119V36.1119H25.3353V34.1119H23.3353ZM16.7309 34.1119V32.1119H14.7309V34.1119H16.7309ZM16.7309 39.3191V41.3191H18.7309V39.3191H16.7309ZM10.7234 39.3191V37.3191H8.7234V39.3191H10.7234ZM10.7234 46.4681H8.7234V48.4681H10.7234V46.4681ZM16.7309 46.4681H18.7309V44.4681H16.7309V46.4681ZM16.7309 51.4656H14.7309V53.4656H16.7309V51.4656ZM23.9357 51.4656H25.9357V49.4656H23.9357V51.4656ZM23.9357 57.7759H21.9357V59.7759H23.9357V57.7759ZM30.5436 57.7759H32.5436V55.7759H30.5436V57.7759ZM30.5436 62.5088H28.5436V64.5088H30.5436V62.5088ZM37.1497 62.5088H39.1497V60.5088H37.1497V62.5088ZM37.1497 68.8191H35.1497V70.8191H37.1497V68.8191ZM50.9644 68.8191V70.8191H52.9644V68.8191H50.9644ZM50.9644 62.5087H52.9644V60.5087H50.9644V62.5087ZM44.3583 62.5087H42.3583V64.5087H44.3583V62.5087ZM44.3583 56.1984H46.3583V54.1984H44.3583V56.1984ZM37.7504 56.1984H35.7504V58.1984H37.7504V56.1984ZM37.7504 51.4654H39.7504V49.4654H37.7504V51.4654ZM30.5456 51.4654H28.5456V53.4654H30.5456V51.4654ZM30.5456 46.4681V44.4681H28.5456V46.4681H30.5456ZM84 46.4681V48.4681H86V46.4681H84ZM84 39.3191H86V37.3191H84V39.3191ZM30.5456 39.3191H28.5456V41.3191H30.5456V39.3191ZM30.5456 34.112V32.112H28.5456V34.112H30.5456ZM37.15 34.112V36.112H39.15V34.112H37.15ZM50.9644 13.1806H37.1497V17.1806H50.9644V13.1806ZM52.9644 21.491V15.1806H48.9644V21.491H52.9644ZM44.3583 23.491H50.9644V19.491H44.3583V23.491ZM46.3583 27.8013V21.491H42.3583V27.8013H46.3583ZM30.5436 29.8013H44.3583V25.8013H30.5436V29.8013ZM28.5436 21.4909V27.8013H32.5436V21.4909H28.5436ZM37.1497 19.4909H30.5436V23.4909H37.1497V19.4909ZM35.1497 15.1806V21.4909H39.1497V15.1806H35.1497ZM23.3353 29.8016H37.15V25.8016H23.3353V29.8016ZM25.3353 34.1119V27.8016H21.3353V34.1119H25.3353ZM16.7309 36.1119H23.3353V32.1119H16.7309V36.1119ZM18.7309 39.3191V34.1119H14.7309V39.3191H18.7309ZM10.7234 41.3191H16.7309V37.3191H10.7234V41.3191ZM12.7234 46.4681V39.3191H8.7234V46.4681H12.7234ZM16.7309 44.4681H10.7234V48.4681H16.7309V44.4681ZM18.7309 51.4656V46.4681H14.7309V51.4656H18.7309ZM23.9357 49.4656H16.7309V53.4656H23.9357V49.4656ZM25.9357 57.7759V51.4656H21.9357V57.7759H25.9357ZM30.5436 55.7759H23.9357V59.7759H30.5436V55.7759ZM32.5436 62.5088V57.7759H28.5436V62.5088H32.5436ZM37.1497 60.5088H30.5436V64.5088H37.1497V60.5088ZM39.1497 68.8191V62.5088H35.1497V68.8191H39.1497ZM50.9644 66.8191H37.1497V70.8191H50.9644V66.8191ZM48.9644 62.5087V68.8191H52.9644V62.5087H48.9644ZM44.3583 64.5087H50.9644V60.5087H44.3583V64.5087ZM42.3583 56.1984V62.5087H46.3583V56.1984H42.3583ZM37.7504 58.1984H44.3583V54.1984H37.7504V58.1984ZM35.7504 51.4654V56.1984H39.7504V51.4654H35.7504ZM30.5456 53.4654H37.7504V49.4654H30.5456V53.4654ZM28.5456 46.4681V51.4654H32.5456V46.4681H28.5456ZM84 44.4681H30.5456V48.4681H84V44.4681ZM82 39.3191V46.4681H86V39.3191H82ZM30.5456 41.3191H84V37.3191H30.5456V41.3191ZM28.5456 34.112V39.3191H32.5456V34.112H28.5456ZM37.15 32.112H30.5456V36.112H37.15V32.112ZM35.15 27.8016V34.112H39.15V27.8016H35.15Z" fill="black" mask="url(#path-1-outside-1_1350_2977)"/>
</svg>
