<svg width="26" height="27" viewBox="0 0 26 27" fill="none" xmlns="http://www.w3.org/2000/svg">
<g clip-path="url(#clip0_1486_1748)">
<g filter="url(#filter0_dd_1486_1748)">
<path fill-rule="evenodd" clip-rule="evenodd" d="M16.25 1.40625H11.856C9.86483 1.40625 8.2875 1.40625 7.05358 1.57838C5.78392 1.75613 4.75583 2.12963 3.94442 2.97113C3.13408 3.81375 2.77442 4.88138 2.60325 6.19988C2.4375 7.48238 2.4375 9.11925 2.4375 11.187V18C2.43731 19.0052 2.78271 19.9774 3.41152 20.7415C4.04033 21.5057 4.91121 22.0116 5.86733 22.1681C6.01575 23.0276 6.30283 23.7611 6.877 24.3585C7.52917 25.0358 8.35033 25.326 9.32533 25.4633C10.2646 25.5938 11.4595 25.5938 12.9404 25.5938H16.3096C17.7905 25.5938 18.9854 25.5938 19.9247 25.4633C20.8997 25.326 21.7208 25.0358 22.373 24.3585C23.0252 23.6813 23.3047 22.8285 23.4368 21.816C23.5625 20.8406 23.5625 19.5998 23.5625 18.0619V12.3131C23.5625 10.7753 23.5625 9.53438 23.4368 8.559C23.3047 7.5465 23.0252 6.69375 22.373 6.0165C21.7978 5.42025 21.0914 5.12213 20.2638 4.968C20.113 3.97511 19.6258 3.07073 18.89 2.41773C18.1541 1.76474 17.2179 1.40605 16.25 1.40625ZM18.5575 4.80488C18.3928 4.30537 18.0818 3.87187 17.668 3.56504C17.2542 3.25821 16.7584 3.09343 16.25 3.09375H11.9167C9.85075 3.09375 8.38392 3.096 7.26917 3.25125C6.18042 3.40313 5.55208 3.68888 5.09383 4.16475C4.63558 4.64063 4.36042 5.29313 4.21417 6.42375C4.06467 7.58138 4.0625 9.10463 4.0625 11.25V18C4.06219 18.528 4.22087 19.0429 4.51634 19.4725C4.8118 19.9022 5.22925 20.2252 5.71025 20.3963C5.6875 19.71 5.6875 18.9338 5.6875 18.0619V12.3131C5.6875 10.7753 5.6875 9.53438 5.81425 8.559C5.94425 7.5465 6.22592 6.69375 6.877 6.0165C7.52917 5.33925 8.35033 5.049 9.32533 4.91288C10.2646 4.78125 11.4595 4.78125 12.9404 4.78125H16.3096C17.1492 4.78125 17.8967 4.78125 18.5575 4.80488ZM8.02533 7.21125C8.32542 6.89963 8.74575 6.69713 9.542 6.58575C10.3588 6.47213 11.4443 6.46988 12.9989 6.46988H16.2489C17.8035 6.46988 18.8879 6.47213 19.7069 6.58575C20.5021 6.69713 20.9224 6.90075 21.2225 7.21125C21.5226 7.52288 21.7176 7.95938 21.8248 8.78625C21.9342 9.6345 21.9364 10.7618 21.9364 12.3761V18.0011C21.9364 19.6155 21.9342 20.7416 21.8248 21.5921C21.7176 22.4179 21.5215 22.8544 21.2225 23.166C20.9224 23.4776 20.5021 23.6801 19.7058 23.7915C18.8879 23.9051 17.8035 23.9074 16.2489 23.9074H12.9989C11.4443 23.9074 10.3588 23.9051 9.54092 23.7915C8.74575 23.6801 8.32542 23.4765 8.02533 23.166C7.72525 22.8544 7.53025 22.4179 7.423 21.591C7.31358 20.7416 7.31142 19.6155 7.31142 18.0011V12.3761C7.31142 10.7618 7.31358 9.6345 7.423 8.78513C7.53025 7.95938 7.72633 7.52288 8.02533 7.21125Z" fill="white"/>
<path d="M5.19208 19.5C5.09495 19.4068 5.00645 19.3028 4.92833 19.1892C4.69101 18.8441 4.56225 18.4284 4.5625 18.0003V18V11.25C4.5625 9.09109 4.56565 7.60602 4.71004 6.48789L5.19208 19.5ZM5.19208 19.5C5.1875 19.0519 5.1875 18.5743 5.1875 18.0682V18.0619V12.3131V12.2803C5.18749 10.7697 5.18749 9.50247 5.31837 8.49498C5.45516 7.42984 5.76093 6.45597 6.51655 5.66998L6.51684 5.66968C7.27677 4.88052 8.22271 4.562 9.25594 4.41771L5.19208 19.5ZM17.7084 4.28616C17.6084 4.16653 17.4949 4.05919 17.3702 3.96666C17.0414 3.72288 16.6499 3.5935 16.2503 3.59375L16.25 3.59375H11.9167C9.83618 3.59375 8.41049 3.59714 7.33825 3.74646L17.7084 4.28616ZM17.7084 4.28616C17.2728 4.28125 16.8084 4.28125 16.3164 4.28125H16.3096H12.9404H12.9053C11.4535 4.28124 10.23 4.28123 9.2562 4.41768L17.7084 4.28616ZM20.8624 7.55818C20.6692 7.35848 20.3723 7.18389 19.6381 7.08099C18.8614 6.97326 17.818 6.96988 16.2489 6.96988H12.9989C11.4299 6.96988 10.3856 6.97326 9.61126 7.08093L20.8624 7.55818ZM20.8624 7.55818C21.0575 7.76082 21.2285 8.07584 21.3289 8.85022C21.4333 9.659 21.4364 10.7481 21.4364 12.3761V18.0011C21.4364 19.6291 21.4333 20.7172 21.3289 21.5283C21.2286 22.3003 21.0569 22.6163 20.8619 22.8196C20.6694 23.0194 20.3735 23.1932 19.637 23.2963C18.8615 23.404 17.8182 23.4074 16.2489 23.4074H12.9989C11.4297 23.4074 10.3852 23.404 9.60972 23.2963C8.87503 23.1933 8.57823 23.0185 8.38501 22.8187C8.19007 22.616 8.0193 22.3009 7.91888 21.527C7.81456 20.717 7.81142 19.629 7.81142 18.0011V12.3761C7.81142 10.7485 7.81456 9.65944 7.91884 8.84953L20.8624 7.55818ZM6.98451 1.08317L6.98426 1.0832C5.65591 1.26917 4.50342 1.67106 3.58449 2.62406L3.58403 2.62454C2.66888 3.57616 2.28531 4.76517 2.10741 6.13551L2.10737 6.13579C1.93749 7.45028 1.93749 9.11346 1.9375 11.1528L1.9375 11.187V17.9999C1.9375 17.9999 1.9375 18 1.9375 18C1.93731 19.1191 2.32173 20.204 3.02543 21.0592C3.65356 21.8226 4.50003 22.3586 5.44122 22.5908C5.6173 23.3786 5.93301 24.0979 6.51651 24.705L6.51684 24.7053C7.27679 25.4945 8.22273 25.813 9.25564 25.9584L9.25652 25.9585C10.2301 26.0938 11.4534 26.0938 12.9056 26.0938H12.9404H16.3096H16.3444C17.7966 26.0938 19.0199 26.0938 19.9935 25.9585L19.9944 25.9584C21.0273 25.813 21.9732 25.4945 22.7332 24.7053C23.4905 23.9188 23.7938 22.9443 23.9326 21.8807L23.9327 21.8799C24.0625 20.8726 24.0625 19.6055 24.0625 18.0945V18.0619V12.3131V12.2805C24.0625 10.7695 24.0625 9.50238 23.9327 8.49511L23.9326 8.49428C23.7938 7.4307 23.4905 6.45619 22.7332 5.66968L22.7328 5.66934C22.1491 5.06432 21.455 4.73371 20.693 4.5486C20.4733 3.57825 19.9606 2.69933 19.2219 2.04375C18.3962 1.31104 17.3424 0.906048 16.25 0.90625C16.25 0.90625 16.2499 0.90625 16.2499 0.90625H11.856L11.8194 0.90625C9.85863 0.906243 8.25288 0.906238 6.98451 1.08317ZM5.45399 4.51157C5.80488 4.14719 6.30886 3.89006 7.33814 3.74647L4.71005 6.48779C4.84951 5.40973 5.10057 4.87859 5.45399 4.51157ZM8.3859 7.55765C8.57849 7.35784 8.87441 7.18404 9.61089 7.08098L7.91884 8.84946C8.01917 8.07706 8.1909 7.76099 8.3859 7.55765Z" stroke="black"/>
</g>
</g>
<defs>
<filter id="filter0_dd_1486_1748" x="-0.5625" y="0.40625" width="28.125" height="28.1875" filterUnits="userSpaceOnUse" color-interpolation-filters="sRGB">
<feFlood flood-opacity="0" result="BackgroundImageFix"/>
<feColorMatrix in="SourceAlpha" type="matrix" values="0 0 0 0 0 0 0 0 0 0 0 0 0 0 0 0 0 0 127 0" result="hardAlpha"/>
<feOffset dx="3" dy="1"/>
<feComposite in2="hardAlpha" operator="out"/>
<feColorMatrix type="matrix" values="0 0 0 0 0.0493692 0 0 0 0 0.611393 0 0 0 0 0.623611 0 0 0 1 0"/>
<feBlend mode="normal" in2="BackgroundImageFix" result="effect1_dropShadow_1486_1748"/>
<feColorMatrix in="SourceAlpha" type="matrix" values="0 0 0 0 0 0 0 0 0 0 0 0 0 0 0 0 0 0 127 0" result="hardAlpha"/>
<feOffset dx="-2" dy="2"/>
<feComposite in2="hardAlpha" operator="out"/>
<feColorMatrix type="matrix" values="0 0 0 0 1 0 0 0 0 0 0 0 0 0 0 0 0 0 1 0"/>
<feBlend mode="normal" in2="effect1_dropShadow_1486_1748" result="effect2_dropShadow_1486_1748"/>
<feBlend mode="normal" in="SourceGraphic" in2="effect2_dropShadow_1486_1748" result="shape"/>
</filter>
<clipPath id="clip0_1486_1748">
<rect width="26" height="27" fill="white"/>
</clipPath>
</defs>
</svg>
