<svg width="92" height="92" viewBox="0 0 92 92" fill="none" xmlns="http://www.w3.org/2000/svg">
<path d="M32.0489 3.02608C22.8566 6.21494 14.9293 12.2675 9.43118 20.2948C3.93308 28.322 1.15406 37.9009 1.5023 47.6243C1.85054 57.3477 5.30769 66.7031 11.366 74.3165C17.4242 81.9299 25.7643 87.3998 35.1611 89.923C42.7793 91.8887 50.7609 91.975 58.4198 90.1745C65.358 88.616 71.7726 85.2824 77.0354 80.5001C82.5129 75.3708 86.4887 68.8455 88.5354 61.6258C90.7601 53.7746 91.156 45.5181 89.6926 37.4901H46.9126V55.2361H71.6879C71.1928 58.0664 70.1317 60.7678 68.5682 63.1785C67.0047 65.5892 64.9709 67.6597 62.5886 69.2661C59.5632 71.2673 56.1528 72.6138 52.5764 73.2192C48.9894 73.8862 45.3102 73.8862 41.7232 73.2192C38.0877 72.4675 34.6486 70.967 31.6248 68.8133C26.7671 65.3747 23.1197 60.4896 21.2029 54.8551C19.2538 49.1152 19.2538 42.8923 21.2029 37.1523C22.5673 33.1289 24.8228 29.4655 27.8011 26.4358C31.2093 22.9049 35.5243 20.381 40.2725 19.141C45.0207 17.901 50.0188 17.9928 54.7182 19.4064C58.3894 20.5333 61.7465 22.5023 64.522 25.1564C67.3155 22.3772 70.1043 19.5909 72.8883 16.7973C74.3258 15.2951 75.8926 13.8648 77.3086 12.3267C73.072 8.38419 68.0991 5.31642 62.6748 3.2992C52.7971 -0.287434 41.989 -0.383821 32.0489 3.02608Z" fill="white"/>
<path d="M32.0492 3.02615C41.9885 -0.386064 52.7966 -0.292214 62.6751 3.29209C68.1004 5.32302 73.071 8.40555 77.3017 12.3627C75.8642 13.9008 74.3476 15.3383 72.8814 16.8333C70.0926 19.6173 67.3063 22.3917 64.5223 25.1565C61.7469 22.5024 58.3897 20.5334 54.7186 19.4065C50.0206 17.9879 45.0228 17.8908 40.2733 19.1257C35.5238 20.3607 31.2062 22.8799 27.7942 26.4071C24.8159 29.4369 22.5605 33.1002 21.1961 37.1237L6.29639 25.5877C11.6296 15.0117 20.8636 6.92195 32.0492 3.02615Z" fill="#E33629"/>
<path d="M2.34289 37.0155C3.14373 33.0465 4.47329 29.2029 6.29601 25.5874L21.1957 37.1521C19.2466 42.8921 19.2466 49.1149 21.1957 54.8549C16.2315 58.6882 11.265 62.5407 6.29601 66.4124C1.73304 57.3297 0.341406 46.981 2.34289 37.0155Z" fill="#F8BD00"/>
<path d="M46.9129 37.4829H89.6929C91.1562 45.5109 90.7604 53.7674 88.5357 61.6185C86.4889 68.8382 82.5131 75.3635 77.0357 80.4929C72.2272 76.741 67.3972 73.0179 62.5888 69.266C64.9727 67.658 67.0075 65.5853 68.571 63.172C70.1346 60.7587 71.1948 58.0546 71.6882 55.2217H46.9129C46.9057 49.3135 46.9129 43.3982 46.9129 37.4829Z" fill="#587DBD"/>
<path d="M6.28906 66.4125C11.258 62.5791 16.2246 58.7266 21.1888 54.855C23.1093 60.4914 26.762 65.3767 31.625 68.8131C34.6582 70.9569 38.1048 72.4452 41.745 73.1831C45.332 73.8501 49.0112 73.8501 52.5981 73.1831C56.1746 72.5777 59.585 71.2312 62.6103 69.23C67.4188 72.9819 72.2487 76.705 77.0572 80.4569C71.7952 85.2418 65.3805 88.5779 58.4416 90.1384C50.7826 91.9389 42.801 91.8526 35.1828 89.8869C29.1575 88.2781 23.5295 85.4421 18.6516 81.5565C13.4885 77.4574 9.27155 72.2917 6.28906 66.4125Z" fill="#319F43"/>
</svg>
