<svg width="150" height="150" viewBox="0 0 150 150" fill="none" xmlns="http://www.w3.org/2000/svg">
<path d="M21.9166 115.135V148.485H14.5416V115.135C14.5416 113.553 14.8347 112.074 15.416 110.687C15.9984 109.299 16.8238 108.095 17.8956 107.068C18.9889 106.02 20.2164 105.179 21.5817 104.542C22.8993 103.927 24.3882 103.61 26.066 103.61H51.0416H52.0416V102.61V93.2352V92.2352H51.0416H44.816C43.2343 92.2352 41.7549 91.9422 40.3688 91.3609C38.976 90.7768 37.7418 89.947 36.6608 88.866C35.5798 87.785 34.7786 86.5795 34.2455 85.2467C33.7083 83.9037 33.3861 82.3861 33.2916 80.6834V74.4852V73.4852H32.2916H23.9166V56.7352H32.2916H33.2916V55.7352V49.5096C33.2916 47.9279 33.5847 46.4486 34.166 45.0624C34.7484 43.6736 35.5738 42.4697 36.6456 41.4426C37.7389 40.3949 38.9664 39.5539 40.3317 38.9168C41.6493 38.3019 43.1382 37.9852 44.816 37.9852H69.7916H70.7916V36.9852V21.6776V21.1047L70.2973 20.8149C69.0372 20.0762 68.0381 19.0581 67.2925 17.7422C66.544 16.4214 66.1502 15.0226 66.1041 13.533C66.1059 12.347 66.3259 11.2681 66.7536 10.2843C67.1941 9.27131 67.7836 8.40059 68.5212 7.66304C69.2594 6.92487 70.1593 6.30666 71.2337 5.81422C72.2652 5.34144 73.3302 5.12928 74.4407 5.17199L74.4599 5.17273H74.4791C75.6709 5.17273 76.7547 5.39273 77.7425 5.82222C78.7555 6.26267 79.6263 6.85224 80.3638 7.5898C81.102 8.32797 81.7202 9.22786 82.2126 10.3023C82.6854 11.3338 82.8976 12.3988 82.8549 13.5093L82.8541 13.5285V13.5477C82.8541 15.0325 82.4851 16.4255 81.739 17.7422C80.9981 19.0496 79.981 20.0667 78.6736 20.8076L78.1666 21.0949V21.6776V36.9852V37.9852H79.1666H104.142C105.724 37.9852 107.203 38.2783 108.589 38.8596C109.978 39.442 111.182 40.2674 112.209 41.3392C113.252 42.4272 114.092 43.6746 114.73 45.0872C115.353 46.4678 115.667 47.9384 115.667 49.5096V55.7352V56.7352H116.667H125.042V73.4852H116.667H115.667V74.4852V80.7108C115.667 82.2926 115.374 83.7719 114.792 85.1581C114.208 86.5508 113.378 87.785 112.297 88.866C111.222 89.9416 109.996 90.7427 108.615 91.2773C107.212 91.8204 105.713 92.1411 104.113 92.2352H97.9166H96.9166V93.2352V102.61V103.61H97.9166H122.892C124.474 103.61 125.953 103.903 127.339 104.485C128.728 105.067 129.932 105.892 130.959 106.964C132.002 108.052 132.842 109.3 133.48 110.712C134.103 112.093 134.417 113.563 134.417 115.135V148.485H127.042V115.135C127.042 114.008 126.656 113.016 125.87 112.23C125.088 111.448 124.087 111.047 122.945 110.987L122.919 110.985H122.892H26.066C24.9398 110.985 23.9474 111.371 23.1617 112.157C22.3796 112.939 21.9781 113.94 21.918 115.082L21.9166 115.108V115.135ZM44.7635 84.8588L44.7897 84.8602H44.816H104.142C105.268 84.8602 106.261 84.4742 107.047 83.6884C107.829 82.9063 108.23 81.9057 108.29 80.7634L108.292 80.7371V80.7108V49.5096C108.292 48.3834 107.906 47.391 107.12 46.6053C106.338 45.8232 105.337 45.4217 104.195 45.3616L104.169 45.3602H104.142H44.816C43.6898 45.3602 42.6974 45.7463 41.9117 46.532C41.1296 47.3141 40.7281 48.3148 40.668 49.4571L40.6666 49.4833V49.5096V80.7108C40.6666 81.8371 41.0527 82.8295 41.8384 83.6152C42.6205 84.3973 43.6212 84.7987 44.7635 84.8588ZM59.4166 102.61V103.61H60.4166H88.5416H89.5416V102.61V93.2352V92.2352H88.5416H60.4166H59.4166V93.2352V102.61ZM52.0416 56.7352H59.4166V64.1102H52.0416V56.7352ZM89.5416 56.7352H96.9166V64.1102H89.5416V56.7352Z" fill="#E6E6FA" stroke="black" stroke-width="2"/>
</svg>
