<svg width="150" height="150" viewBox="0 0 150 150" fill="none" xmlns="http://www.w3.org/2000/svg">
<path d="M110.356 62.6461L121.01 92.3633H107.782H106.782V93.3633V114.898C106.782 116.325 106.501 117.738 105.955 119.056C105.409 120.374 104.608 121.572 103.599 122.581C102.59 123.59 101.392 124.391 100.074 124.937C98.7556 125.483 97.3426 125.764 95.9156 125.764H70.282H69.282V126.764V139.827L23.8211 139.824V112.751C23.8211 108.029 22.4112 103.449 19.9052 99.4745L19.9051 99.4742C14.7999 91.3831 10.9357 83.114 9.2564 73.4184L8.27118 73.5891L9.25639 73.4184C7.22591 61.698 8.12076 49.3242 12.8022 38.3833L12.8022 38.3832C21.5118 18.0234 43.6153 8.13985 65.2262 10.5423L65.2262 10.5423C91.8313 13.499 109.186 36.0434 110.299 62.3509L110.305 62.5029L110.356 62.6461Z" stroke="white" stroke-width="2"/>
<path d="M59.5609 10.1928C41.0089 11.5295 23.5845 21.569 15.9391 39.4459C11.0815 50.7987 10.1764 63.5732 12.2615 75.609C13.9994 85.643 17.996 94.1597 23.1892 102.39C25.5067 106.066 26.7969 110.279 26.7969 114.6V139.824H23.8234V112.751C23.8234 108.029 22.4111 103.446 19.9051 99.4743L19.0594 100.008L19.9051 99.4742C14.7999 91.3831 10.9357 83.114 9.2564 73.4184L8.27119 73.5891L9.25639 73.4184C7.22591 61.698 8.12076 49.3242 12.8022 38.3833L12.8022 38.3831C20.7489 19.8019 39.8555 9.94646 59.5609 10.1928Z" stroke="white" stroke-width="2"/>
<path d="M70.4539 127.936V140.825C70.4538 140.87 70.4357 140.914 70.4035 140.946L71.1099 141.654L70.4034 140.946C70.3712 140.978 70.3276 140.996 70.2821 140.996H22.8211C22.7756 140.996 22.7318 140.978 22.6996 140.946C22.6674 140.914 22.6492 140.87 22.6492 140.824V112.751C22.6492 108.34 21.3539 103.968 18.9138 100.1C13.0408 90.7878 9.61876 82.381 8.10336 73.6202L8.1033 73.6199C5.90142 60.9174 7.16517 48.5767 11.7241 37.9215L11.7241 37.9214C20.1281 18.2739 41.6282 6.73785 65.3574 9.37751L65.3576 9.37753C91.2129 12.2488 110.194 33.8611 111.464 62.1238L111.47 62.2745L111.521 62.4164L122.595 93.3047L122.596 93.3052C122.605 93.3312 122.608 93.359 122.604 93.3863C122.6 93.4137 122.59 93.4397 122.574 93.4623C122.558 93.4848 122.537 93.5032 122.513 93.5159C122.488 93.5286 122.461 93.5352 122.434 93.5352H122.433H108.956H107.956V94.5352V114.896C107.952 118.088 106.683 121.148 104.426 123.405C102.169 125.662 99.1086 126.932 95.9167 126.936H71.4539H70.4539V127.936ZM108.956 94.5352V95.5352L123.537 92.9672C123.6 93.1442 123.62 93.3339 123.595 93.5203C123.57 93.7066 123.5 93.8842 123.392 94.0379C123.284 94.1917 123.14 94.3172 122.973 94.4037C122.806 94.4903 122.621 94.5354 122.433 94.5352H109.956H108.956ZM22.993 139.652L22.9929 140.652H23.993H69.1102H70.1102V139.652V126.762C70.1102 126.716 70.1283 126.672 70.1605 126.64C70.1927 126.608 70.2365 126.59 70.2821 126.59H95.9156H95.9167C99.017 126.586 101.989 125.353 104.181 123.161C106.374 120.969 107.607 117.997 107.61 114.896V114.895V93.361C107.61 93.3154 107.628 93.2717 107.661 93.2394C107.693 93.2072 107.736 93.1891 107.782 93.1891H120.766H122.187L121.708 91.8517L111.138 62.3657C111.138 62.3654 111.138 62.3652 111.137 62.3649C111.132 62.3483 111.128 62.3309 111.127 62.3133C109.942 34.2882 91.1512 12.5884 65.3182 9.71944C41.8919 7.10951 20.4316 18.4409 12.0392 38.0559L12.0392 38.056C7.49243 48.6874 6.26053 60.9654 8.44123 73.558C9.97752 82.437 13.3129 90.5748 19.205 99.9156L19.2051 99.9157C21.6889 103.852 22.9953 108.29 22.9953 112.751L22.993 139.652Z" fill="#FF0000" stroke="white" stroke-width="2"/>
<path d="M130.649 62.3509L130.656 62.5029L130.707 62.6461L141.36 92.3633H128.133H127.133V93.3633V114.898C127.133 116.325 126.852 117.738 126.306 119.056C125.76 120.374 124.959 121.572 123.95 122.581C122.941 123.59 121.743 124.391 120.425 124.937C119.106 125.483 117.693 125.764 116.266 125.764H102.808C103.605 125.259 104.345 124.666 105.016 123.996C106.211 122.801 107.158 121.382 107.805 119.821C108.452 118.26 108.784 116.587 108.784 114.898V94.3633H122.433H123.854L123.374 93.0258L112.293 62.1138C111.232 38.3609 97.2706 17.383 75.1037 10.5485H85.6319C112.204 13.5299 129.537 36.0615 130.649 62.3509ZM71.2821 127.762H89.6305V139.824H71.2821V127.762Z" stroke="white" stroke-width="2"/>
<path d="M95.9179 126.59H95.919C99.0193 126.586 101.992 125.353 104.184 123.161C106.376 120.969 107.609 117.997 107.612 114.896V114.895V93.361C107.612 93.3154 107.631 93.2717 107.663 93.2394L106.956 92.5323L107.663 93.2394C107.695 93.2072 107.739 93.1891 107.784 93.1891H120.769H122.189L121.71 91.8516L111.14 62.3657C111.14 62.3656 111.14 62.3655 111.14 62.3653C111.134 62.3485 111.13 62.3309 111.13 62.3131C109.942 34.2882 91.1511 12.5884 65.3181 9.71942L65.3171 9.71931C65.2734 9.7145 65.2332 9.69313 65.2048 9.65959C65.1764 9.62605 65.1619 9.5829 65.1643 9.539C65.1667 9.49509 65.1859 9.45379 65.2178 9.42359C65.2498 9.39338 65.2921 9.37656 65.336 9.37659H65.3367H85.6296C111.587 12.2794 130.541 33.8824 131.81 62.1238L131.816 62.2745L131.867 62.4164L142.941 93.3047L142.942 93.3052C142.951 93.3312 142.954 93.359 142.95 93.3863C142.946 93.4136 142.936 93.4397 142.92 93.4622L143.738 94.0379L142.92 93.4623C142.904 93.4848 142.883 93.5032 142.859 93.5159C142.834 93.5286 142.807 93.5352 142.78 93.5352H142.779H129.302H128.302V94.5352V114.897C128.299 118.088 127.03 121.148 124.773 123.404C122.516 125.661 119.457 126.93 116.265 126.934H95.9179C95.8723 126.934 95.8286 126.916 95.7964 126.883L95.0893 127.59L95.7964 126.883C95.7642 126.851 95.746 126.807 95.746 126.762C95.746 126.716 95.7642 126.672 95.7964 126.64L95.0893 125.933L95.7964 126.64C95.8286 126.608 95.8723 126.59 95.9179 126.59ZM102.795 124.769L100.179 126.59H103.366H116.264H116.265C119.365 126.586 122.338 125.353 124.53 123.161C126.722 120.969 127.955 117.997 127.959 114.896V114.895V93.361C127.959 93.3154 127.977 93.2717 128.009 93.2394L127.302 92.5323L128.009 93.2394C128.041 93.2072 128.085 93.1891 128.13 93.1891H141.115H142.536L142.056 91.8516L131.486 62.3657C131.48 62.3488 131.477 62.3311 131.476 62.3132C130.29 34.2882 111.5 12.5884 85.6666 9.71942L85.6114 9.71329L85.556 9.71331L76.1364 9.71565L75.8206 11.6644C96.1826 18.4479 110.369 37.8266 111.461 62.1238L111.468 62.2745L111.519 62.4164L122.593 93.3047L122.593 93.3052C122.602 93.3312 122.605 93.359 122.602 93.3863C122.598 93.4137 122.588 93.4397 122.572 93.4622L123.39 94.0379L122.572 93.4622C122.556 93.4848 122.535 93.5032 122.511 93.5159C122.486 93.5286 122.459 93.5352 122.431 93.5352H122.43H108.954H107.954V94.5352V114.897C107.954 114.897 107.954 114.898 107.954 114.898C107.953 116.837 107.484 118.747 106.586 120.466C105.687 122.185 104.387 123.661 102.795 124.769ZM70.4539 139.652V140.652H71.4539H89.4585H90.4585V139.652V127.934V126.934H89.4585H71.4539H70.4539V127.934V139.652ZM70.1604 126.64L69.4533 125.933L70.1604 126.64C70.1927 126.608 70.2364 126.59 70.282 126.59H90.6304C90.676 126.59 90.7197 126.608 90.7519 126.64L91.4591 125.933L90.752 126.64C90.7842 126.672 90.8023 126.716 90.8023 126.762V140.824C90.8023 140.87 90.7842 140.914 90.7519 140.946C90.7197 140.978 90.676 140.996 90.6304 140.996H70.282C70.2364 140.996 70.1927 140.978 70.1604 140.946C70.1282 140.914 70.1101 140.87 70.1101 140.824V126.762C70.1101 126.716 70.1282 126.672 70.1604 126.64Z" fill="#FF0000" stroke="white" stroke-width="2"/>
<path d="M45.4968 34.3047H62.2882V34.6484H44.325C44.2794 34.6484 44.2356 34.6303 44.2034 34.5981C44.1712 34.5659 44.1531 34.5222 44.1531 34.4766V12.0391H44.4968V33.3047V34.3047H45.4968ZM123.43 93.1914H127.13V93.5352H123.43V93.1914Z" fill="#FF0000" stroke="white" stroke-width="2"/>
<path d="M32.4055 28.0312V51.0547H32.0618V26.8594C32.0618 26.8138 32.0799 26.7701 32.1121 26.7378C32.1443 26.7056 32.1881 26.6875 32.2336 26.6875H43.325V27.0312H33.4055H32.4055V28.0312Z" fill="#FF0000" stroke="white" stroke-width="2"/>
<path d="M68.8062 34.4766C68.8062 35.8659 67.6799 36.9922 66.2905 36.9922C64.9012 36.9922 63.7749 35.8659 63.7749 34.4766C63.7749 33.0872 64.9012 31.9609 66.2905 31.9609C67.6799 31.9609 68.8062 33.0872 68.8062 34.4766Z" stroke="white" stroke-width="2"/>
<path d="M93.1484 49.4906C93.1484 50.8799 92.0222 52.0062 90.6328 52.0062C89.2435 52.0062 88.1172 50.8799 88.1172 49.4906C88.1172 48.1013 89.2435 46.975 90.6328 46.975C92.0222 46.975 93.1484 48.1013 93.1484 49.4906Z" stroke="white" stroke-width="2"/>
<path d="M34.7493 55.0828C34.7493 56.4721 33.623 57.5984 32.2336 57.5984C30.8443 57.5984 29.718 56.4721 29.718 55.0828C29.718 53.6934 30.8443 52.5671 32.2336 52.5671C33.623 52.5671 34.7493 53.6934 34.7493 55.0828Z" stroke="white" stroke-width="2"/>
<path d="M38.2649 90.7266C38.2649 92.1159 37.1386 93.2422 35.7493 93.2422C34.3599 93.2422 33.2336 92.1159 33.2336 90.7266C33.2336 89.3372 34.3599 88.2109 35.7493 88.2109C37.1386 88.2109 38.2649 89.3372 38.2649 90.7266Z" stroke="white" stroke-width="2"/>
<path d="M62.3843 87.2109C62.3843 88.6003 61.258 89.7266 59.8687 89.7266C58.4793 89.7266 57.353 88.6003 57.353 87.2109C57.353 85.8216 58.4793 84.6953 59.8687 84.6953C61.258 84.6953 62.3843 85.8216 62.3843 87.2109Z" stroke="white" stroke-width="2"/>
<path d="M62.3843 122.269C62.3843 123.658 61.258 124.784 59.8687 124.784C58.4793 124.784 57.353 123.658 57.353 122.269C57.353 120.879 58.4793 119.753 59.8687 119.753C61.258 119.753 62.3843 120.879 62.3843 122.269Z" stroke="white" stroke-width="2"/>
<path d="M99.5914 87.2109C99.5914 88.6003 98.4651 89.7266 97.0758 89.7266C95.6865 89.7266 94.5602 88.6003 94.5602 87.2109C94.5602 85.8216 95.6865 84.6953 97.0758 84.6953C98.4651 84.6953 99.5914 85.8216 99.5914 87.2109Z" stroke="white" stroke-width="2"/>
<path d="M66.2907 38.1641C64.2578 38.1641 62.6032 36.5094 62.6032 34.4766C62.6032 32.4437 64.2578 30.7891 66.2907 30.7891C68.3235 30.7891 69.9782 32.4437 69.9782 34.4766C69.9782 36.5094 68.3235 38.1641 66.2907 38.1641ZM66.2907 31.1328C64.447 31.1328 62.9469 32.6329 62.9469 34.4766C62.9469 36.3203 64.447 37.8203 66.2907 37.8203C68.1344 37.8203 69.6344 36.3203 69.6344 34.4766C69.6344 32.6329 68.1344 31.1328 66.2907 31.1328ZM90.6305 53.1781C88.5976 53.1781 86.943 51.5235 86.943 49.4906C86.943 47.4578 88.5976 45.8031 90.6305 45.8031C92.6634 45.8031 94.318 47.4578 94.318 49.4906C94.318 51.5235 92.6634 53.1781 90.6305 53.1781ZM90.6305 46.1469C88.7868 46.1469 87.2868 47.6469 87.2868 49.4906C87.2868 51.3343 88.7868 52.8344 90.6305 52.8344C92.4742 52.8344 93.9743 51.3343 93.9743 49.4906C93.9743 47.6476 92.4772 46.1469 90.6305 46.1469ZM32.2336 58.768C30.2008 58.768 28.5461 57.1133 28.5461 55.0805C28.5461 53.0476 30.2008 51.393 32.2336 51.393C34.2665 51.393 35.9211 53.0476 35.9211 55.0805C35.9211 57.1133 34.2665 58.768 32.2336 58.768ZM32.2336 51.7367C30.39 51.7367 28.8899 53.2368 28.8899 55.0805C28.8899 56.9242 30.39 58.4242 32.2336 58.4242C34.0773 58.4242 35.5774 56.9242 35.5774 55.0805C35.5774 53.2368 34.0773 51.7367 32.2336 51.7367ZM35.7493 94.4141C33.7164 94.4141 32.0618 92.7594 32.0618 90.7266C32.0618 88.6937 33.7164 87.0391 35.7493 87.0391C37.7821 87.0391 39.4368 88.6937 39.4368 90.7266C39.4368 92.7594 37.7821 94.4141 35.7493 94.4141ZM35.7493 87.3828C33.9056 87.3828 32.4055 88.8829 32.4055 90.7266C32.4055 92.5703 33.9056 94.0703 35.7493 94.0703C37.593 94.0703 39.093 92.5703 39.093 90.7266C39.093 88.8829 37.593 87.3828 35.7493 87.3828Z" fill="#FF0000" stroke="white" stroke-width="2"/>
<path d="M38.2649 124.809C38.2649 126.199 37.1386 127.325 35.7493 127.325C34.3599 127.325 33.2336 126.199 33.2336 124.809C33.2336 123.42 34.3599 122.294 35.7493 122.294C37.1386 122.294 38.2649 123.42 38.2649 124.809Z" stroke="white" stroke-width="2"/>
<path d="M54.5219 43.5586V42.5586H53.5219H33.2336V42.2148H54.6938C54.7394 42.2148 54.7831 42.2329 54.8153 42.2652C54.8476 42.2974 54.8657 42.3411 54.8657 42.3867V65.2383V66.2383H55.8657H64.1649H65.1649V65.2383V49.418C65.1649 49.3724 65.183 49.3287 65.2152 49.2964C65.2475 49.2642 65.2912 49.2461 65.3368 49.2461H86.5063V49.5898H66.5086H65.5086V50.5898V66.4102C65.5086 66.4557 65.4905 66.4995 65.4583 66.5317C65.4261 66.5639 65.3824 66.582 65.3368 66.582H54.6938C54.6482 66.582 54.6045 66.5639 54.5723 66.5317C54.54 66.4995 54.5219 66.4557 54.5219 66.4102V43.5586ZM35.7493 128.495C33.7164 128.495 32.0618 126.84 32.0618 124.807C32.0618 122.774 33.7164 121.12 35.7493 121.12C37.7821 121.12 39.4368 122.774 39.4368 124.807C39.4368 126.84 37.7821 128.495 35.7493 128.495ZM35.7493 121.463C33.9056 121.463 32.4055 122.963 32.4055 124.807C32.4055 126.651 33.9056 128.151 35.7493 128.151C37.593 128.151 39.093 126.651 39.093 124.807C39.093 122.963 37.593 121.463 35.7493 121.463ZM59.8688 90.8984C57.8359 90.8984 56.1813 89.2438 56.1813 87.2109C56.1813 85.1781 57.8359 83.5234 59.8688 83.5234C61.9017 83.5234 63.5563 85.1781 63.5563 87.2109C63.5563 89.2438 61.9017 90.8984 59.8688 90.8984ZM59.8688 83.8672C58.0251 83.8672 56.525 85.3672 56.525 87.2109C56.525 89.0546 58.0251 90.5547 59.8688 90.5547C61.7125 90.5547 63.2125 89.0546 63.2125 87.2109C63.2125 85.3679 61.7155 83.8672 59.8688 83.8672ZM59.8688 125.956C57.8359 125.956 56.1813 124.302 56.1813 122.269C56.1813 120.236 57.8359 118.581 59.8688 118.581C61.9017 118.581 63.5563 120.236 63.5563 122.269C63.5563 124.302 61.9017 125.956 59.8688 125.956ZM59.8688 118.925C58.0251 118.925 56.525 120.425 56.525 122.269C56.525 124.112 58.0251 125.613 59.8688 125.613C61.7125 125.613 63.2125 124.112 63.2125 122.269C63.2125 120.426 61.7155 118.925 59.8688 118.925ZM97.0758 90.8984C95.043 90.8984 93.3883 89.2438 93.3883 87.2109C93.3883 85.1781 95.043 83.5234 97.0758 83.5234C99.1087 83.5234 100.763 85.1781 100.763 87.2109C100.763 89.2438 99.1087 90.8984 97.0758 90.8984ZM97.0758 83.8672C95.2321 83.8672 93.7321 85.3672 93.7321 87.2109C93.7321 89.0546 95.2321 90.5547 97.0758 90.5547C98.9195 90.5547 100.42 89.0546 100.42 87.2109C100.42 85.3679 98.9225 83.8672 97.0758 83.8672Z" fill="#FF0000" stroke="white" stroke-width="2"/>
<path d="M45.4968 87.0391H55.257V87.3828H44.325C44.2794 87.3828 44.2356 87.3647 44.2034 87.3325C44.1712 87.3002 44.1531 87.2565 44.1531 87.2109V69.3281V68.3281H43.1531H23.7375C23.6919 68.3281 23.6481 68.31 23.6159 68.2778C23.5837 68.2456 23.5656 68.2018 23.5656 68.1563V43.5586V42.5586H22.5656H11.2234V42.2148H23.7375C23.783 42.2148 23.8267 42.2329 23.859 42.2652C23.8912 42.2974 23.9093 42.3411 23.9093 42.3867V66.9844V67.9844H24.9093H44.325C44.3705 67.9844 44.4143 68.0025 44.4465 68.0347C44.4787 68.067 44.4968 68.1107 44.4968 68.1563V86.0391V87.0391H45.4968Z" fill="#FF0000" stroke="white" stroke-width="2"/>
<path d="M14.0695 54.5703H8.64062V54.2266H15.2414C15.287 54.2266 15.3307 54.2447 15.3629 54.2769C15.3952 54.3092 15.4133 54.3529 15.4133 54.3985V74.6133V75.6133H16.4133H35.7492C35.7948 75.6133 35.8385 75.6314 35.8708 75.6636C35.903 75.6959 35.9211 75.7396 35.9211 75.7852V86.211H35.5773V76.9571V75.9571H34.5773H15.2414C15.1958 75.9571 15.1521 75.9389 15.1199 75.9067C15.0876 75.8745 15.0695 75.8308 15.0695 75.7852V55.5703V54.5703H14.0695ZM80.6281 22.7578V34.9414H80.2844V23.9297V22.9297H79.2844H56.3531C56.3075 22.9297 56.2638 22.9116 56.2316 22.8794C56.1994 22.8471 56.1813 22.8034 56.1813 22.7578V10.5485H56.525V21.586V22.586H57.525H80.4563C80.5018 22.586 80.5456 22.6041 80.5778 22.6363C80.61 22.6685 80.6281 22.7122 80.6281 22.7578ZM97.4445 66.4102V82.6953H97.1008V67.5821V66.5821H96.1008H89.6555H88.6555V67.5821V77.6907C88.6555 77.7362 88.6374 77.7799 88.6051 77.8122L89.3122 78.5193L88.6051 77.8122C88.5729 77.8444 88.5292 77.8625 88.4836 77.8625H76.1789C76.1333 77.8625 76.0896 77.8444 76.0574 77.8122C76.0251 77.7799 76.007 77.7362 76.007 77.6907V59.5758C76.007 59.5302 76.0251 59.4865 76.0574 59.4543C76.0896 59.422 76.1333 59.4039 76.1789 59.4039H109.944V59.7477H77.3508H76.3508V60.7477V76.5188V77.5188H77.3508H87.3117H88.3117V76.5188V66.4102C88.3117 66.3646 88.3298 66.3209 88.3621 66.2886C88.3943 66.2564 88.438 66.2383 88.4836 66.2383H97.2727C97.3182 66.2383 97.362 66.2564 97.3942 66.2887C97.4264 66.3209 97.4445 66.3646 97.4445 66.4102ZM59.6969 68.2891H60.0406V76.6907H59.6969V68.2891ZM44.1531 44.3617H44.4969V60.1344H44.1531V44.3617Z" fill="#FF0000" stroke="white" stroke-width="2"/>
<path d="M35.9211 103.91V121.269H35.5774V102.738C35.5774 102.693 35.5955 102.649 35.6277 102.617C35.66 102.584 35.7037 102.566 35.7493 102.566H47.468H48.468V101.566V88.2109H48.8118V102.738C48.8118 102.784 48.7937 102.828 48.7614 102.86C48.7292 102.892 48.6855 102.91 48.6399 102.91H36.9211H35.9211V103.91ZM81.6696 78.6882H82.0133V89.7265H81.6696V78.6882Z" fill="#FF0000" stroke="white" stroke-width="2"/>
<path d="M45.4946 122.097H55.3532V122.441H44.3228C44.2772 122.441 44.2335 122.423 44.2012 122.39C44.169 122.358 44.1509 122.314 44.1509 122.269V103.738H44.4946V121.097V122.097H45.4946Z" fill="#FF0000" stroke="white" stroke-width="2"/>
<path d="M58.0149 112.674H52.3751V112.33H56.8431H57.8431V111.33V104.737C57.8431 104.692 57.8612 104.648 57.8934 104.616C57.9256 104.584 57.9694 104.566 58.0149 104.566H69.1103H70.1103V103.566V97.8516V96.8516H69.1103H49.6399V96.5078H70.2821C70.3277 96.5078 70.3714 96.5259 70.4037 96.5582C70.4359 96.5904 70.454 96.6341 70.454 96.6797V104.737C70.454 104.783 70.4359 104.827 70.4037 104.859C70.3714 104.891 70.3277 104.909 70.2821 104.909H59.1868H58.1868V105.909V112.502C58.1868 112.548 58.1687 112.592 58.1365 112.624C58.1043 112.656 58.0605 112.674 58.0149 112.674ZM23.6392 86.4688H12.9087V86.125H24.811C24.8566 86.125 24.9003 86.1431 24.9326 86.1753C24.9648 86.2076 24.9829 86.2513 24.9829 86.2969V94.5102H24.6392V87.4688V86.4688H23.6392Z" fill="#FF0000" stroke="white" stroke-width="2"/>
</svg>
