<svg width="150" height="150" viewBox="0 0 150 150" fill="none" xmlns="http://www.w3.org/2000/svg">
<g clip-path="url(#clip0_2202_2791)">
<path d="M143.193 122.781L105.659 142.888C103.453 144.068 101.036 144.893 98.5167 145.327L84.7031 147.702C81.416 148.263 78.0314 148.155 74.7964 147.387L41.5123 139.464C36.2658 138.211 30.7514 138.187 25.4916 139.393L8.97809 143.19C8.20333 143.381 7.39058 143.412 6.60096 143.279C5.81133 143.146 5.06538 142.854 4.41917 142.424C3.77296 141.994 3.24331 141.438 2.87005 140.797C2.49679 140.156 2.28962 139.447 2.26412 138.723L2.1427 121.796C2.14383 120.853 2.46362 119.933 3.05949 119.158C3.65537 118.383 4.49906 117.79 5.47826 117.458L39.8195 105.332C42.1564 104.506 44.632 104.045 47.1406 103.967L70.1538 103.208L86.9601 102.648H87.2172C88.2423 102.602 89.2671 102.744 90.2298 103.064C91.1925 103.385 92.0733 103.878 92.8191 104.513C93.5649 105.149 94.1602 105.913 94.5693 106.762C94.9785 107.61 95.1928 108.524 95.1996 109.449C95.2063 110.374 95.0053 111.29 94.6086 112.143C94.212 112.996 93.6278 113.768 92.8914 114.412C92.1549 115.057 91.2814 115.56 90.3235 115.892C89.3655 116.224 88.3429 116.378 87.3172 116.344L56.0044 116.499C55.6865 116.497 55.3712 116.552 55.0767 116.66C54.7822 116.768 54.5143 116.927 54.2881 117.129C54.0619 117.33 53.882 117.57 53.7586 117.834C53.6352 118.098 53.5707 118.381 53.5688 118.668V118.79C53.6073 119.299 53.8429 119.779 54.2345 120.148C54.6262 120.516 55.149 120.748 55.7116 120.805L70.2895 122.459L91.2385 124.834C93.2484 125.064 95.289 124.759 97.1096 123.958L131.687 108.775L133.601 107.938C134.961 107.342 136.452 107.028 137.965 107.018C139.458 107.003 140.935 107.29 142.288 107.86C143.64 108.429 144.834 109.265 145.779 110.307C146.615 111.247 147.217 112.338 147.542 113.507C147.867 114.676 147.908 115.894 147.663 117.078C147.417 118.263 146.891 119.386 146.119 120.37C145.348 121.354 144.35 122.176 143.193 122.781Z" stroke="white" stroke-width="4" stroke-miterlimit="10"/>
<path d="M132.208 109.264C132.037 109.084 131.865 108.91 131.687 108.743C129.195 106.394 125.95 104.807 122.406 104.206C118.863 103.604 115.199 104.018 111.93 105.389L96.4239 111.877L94.8168 112.521M98.8452 37.331H85.8173C85.5881 37.331 85.3682 37.249 85.2062 37.1029C85.0441 36.9569 84.953 36.7588 84.953 36.5522V24.8122C84.953 24.6057 84.862 24.4076 84.6999 24.2616C84.5378 24.1155 84.318 24.0334 84.0888 24.0334H67.2396C67.0104 24.0334 66.7905 24.1155 66.6285 24.2616C66.4664 24.4076 66.3753 24.6057 66.3753 24.8122V36.5458C66.3763 36.6491 66.3544 36.7516 66.311 36.8473C66.2675 36.943 66.2033 37.0299 66.1222 37.1029C66.0411 37.176 65.9447 37.2338 65.8385 37.273C65.7324 37.3122 65.6186 37.3319 65.504 37.331H52.4831C52.2539 37.331 52.0341 37.4131 51.872 37.5591C51.71 37.7052 51.6189 37.9033 51.6189 38.1098V53.2933C51.6208 53.4987 51.7127 53.6951 51.8745 53.8398C52.0364 53.9845 52.2552 54.0656 52.4831 54.0656H65.504C65.7332 54.0656 65.953 54.1477 66.1151 54.2937C66.2771 54.4398 66.3682 54.6379 66.3682 54.8444V66.578C66.3682 66.7845 66.4592 66.9826 66.6213 67.1287C66.7834 67.2747 67.0032 67.3568 67.2324 67.3568H84.0816C84.3109 67.3568 84.5307 67.2747 84.6928 67.1287C84.8548 66.9826 84.9459 66.7845 84.9459 66.578V54.8509C84.9449 54.7475 84.9668 54.645 85.0103 54.5494C85.0537 54.4537 85.1179 54.3668 85.199 54.2937C85.2801 54.2206 85.3765 54.1628 85.4827 54.1237C85.5888 54.0845 85.7026 54.0648 85.8173 54.0656H98.8381C98.9516 54.0656 99.064 54.0455 99.1688 54.0063C99.2737 53.9672 99.3689 53.9098 99.4492 53.8375C99.5294 53.7652 99.5931 53.6793 99.6365 53.5849C99.68 53.4904 99.7023 53.3891 99.7023 53.2868V38.1034C99.7005 37.8991 99.6096 37.7036 99.4492 37.5591C99.2889 37.4146 99.072 37.3327 98.8452 37.331Z" stroke="white" stroke-width="4" stroke-miterlimit="10"/>
<path d="M122.73 56.5436C119.798 66.8724 112.784 75.8818 103.003 81.8805C93.2227 87.8791 81.3487 90.4545 69.6104 89.1232C57.8721 87.7918 47.0766 82.6454 39.2506 74.6498C31.4246 66.6543 27.1063 56.3596 27.1063 45.6983C27.1063 35.037 31.4246 24.7423 39.2506 16.7468C47.0766 8.75129 57.8721 3.6048 69.6104 2.27348C81.3487 0.942157 93.2227 3.51756 103.003 9.5162C112.784 15.5148 119.798 24.5242 122.73 34.853" stroke="white" stroke-width="4" stroke-miterlimit="10"/>
<mask id="path-4-inside-1_2202_2791" fill="white">
<path d="M22.3131 81.2465H20.8132V79.8949C20.7697 79.4897 20.5632 79.1129 20.2326 78.8355C19.902 78.5581 19.4702 78.3993 19.0187 78.389C18.5671 78.3787 18.127 78.5176 17.7812 78.7796C17.4355 79.0416 17.2081 79.4086 17.142 79.8112V81.1629H15.642C15.3907 81.1451 15.1379 81.1738 14.8993 81.2472C14.6607 81.3206 14.4413 81.4372 14.2545 81.5898C14.0677 81.7424 13.9175 81.9278 13.8132 82.1347C13.7088 82.3415 13.6524 82.5654 13.6476 82.7925C13.6427 83.0197 13.6894 83.2453 13.7848 83.4556C13.8802 83.6659 14.0224 83.8565 14.2024 84.0155C14.3825 84.1745 14.5968 84.2986 14.8321 84.3803C15.0673 84.462 15.3187 84.4995 15.5706 84.4905H17.0705V85.8421C17.0893 86.2669 17.2874 86.6691 17.6243 86.9666C17.9612 87.2641 18.4116 87.4344 18.8832 87.4426C19.3548 87.4508 19.8121 87.2964 20.1616 87.0108C20.5111 86.7253 20.7263 86.3303 20.7632 85.9065V84.5548H22.2631C22.7345 84.5379 23.1809 84.3594 23.511 84.0558C23.8412 83.7522 24.0301 83.3464 24.0392 82.9214C24.0484 82.4964 23.877 82.0843 23.5601 81.7693C23.2432 81.4544 22.8048 81.2605 22.3346 81.2272L22.3131 81.2465ZM138.779 81.2465H137.279V79.8949C137.26 79.4701 137.062 79.0679 136.725 78.7704C136.388 78.4729 135.938 78.3026 135.466 78.2944C134.995 78.2862 134.537 78.4406 134.188 78.7261C133.839 79.0117 133.623 79.4067 133.586 79.8305V81.1822H132.086C131.835 81.1644 131.582 81.1931 131.344 81.2665C131.105 81.3399 130.886 81.4565 130.699 81.6091C130.512 81.7617 130.362 81.9472 130.258 82.154C130.153 82.3608 130.097 82.5847 130.092 82.8118C130.087 83.039 130.134 83.2647 130.229 83.475C130.325 83.6853 130.467 83.8758 130.647 84.0348C130.827 84.1938 131.041 84.318 131.277 84.3996C131.512 84.4813 131.763 84.5188 132.015 84.5098H133.515V85.8614C133.534 86.2862 133.732 86.6884 134.069 86.9859C134.406 87.2834 134.856 87.4537 135.328 87.4619C135.799 87.4701 136.257 87.3157 136.606 87.0302C136.955 86.7446 137.171 86.3496 137.208 85.9258V84.5741H138.708C139.179 84.5573 139.625 84.3788 139.955 84.0751C140.286 83.7715 140.475 83.3657 140.484 82.9407C140.493 82.5157 140.321 82.1036 140.005 81.7887C139.688 81.4738 139.249 81.2798 138.779 81.2465ZM140.886 17.8803H139.365V16.5094C139.374 16.0621 139.186 15.6298 138.842 15.3075C138.498 14.9852 138.025 14.7994 137.529 14.7908C137.033 14.7823 136.553 14.9518 136.195 15.262C135.838 15.5722 135.631 15.9977 135.622 16.445V17.8159H134.101C133.604 17.8074 133.125 17.9769 132.767 18.2871C132.409 18.5973 132.203 19.0228 132.194 19.4701C132.184 19.9173 132.372 20.3496 132.716 20.6719C133.061 20.9942 133.533 21.1801 134.029 21.1886H135.551V22.5596C135.541 23.0068 135.729 23.4391 136.073 23.7614C136.418 24.0837 136.89 24.2695 137.386 24.2781C137.883 24.2866 138.362 24.1171 138.72 23.8069C139.078 23.4967 139.284 23.0712 139.293 22.6239L139.279 21.2401H140.8C141.046 21.2443 141.29 21.2049 141.519 21.124C141.748 21.0432 141.957 20.9225 142.134 20.7689C142.311 20.6153 142.453 20.4318 142.551 20.2288C142.65 20.0258 142.703 19.8074 142.707 19.5859C142.712 19.3645 142.668 19.1444 142.579 18.9382C142.489 18.7319 142.355 18.5437 142.185 18.3841C142.014 18.2245 141.81 18.0968 141.585 18.0081C141.36 17.9195 141.118 17.8717 140.872 17.8674L140.886 17.8803Z"/>
</mask>
<path d="M22.3131 81.2465H20.8132V79.8949C20.7697 79.4897 20.5632 79.1129 20.2326 78.8355C19.902 78.5581 19.4702 78.3993 19.0187 78.389C18.5671 78.3787 18.127 78.5176 17.7812 78.7796C17.4355 79.0416 17.2081 79.4086 17.142 79.8112V81.1629H15.642C15.3907 81.1451 15.1379 81.1738 14.8993 81.2472C14.6607 81.3206 14.4413 81.4372 14.2545 81.5898C14.0677 81.7424 13.9175 81.9278 13.8132 82.1347C13.7088 82.3415 13.6524 82.5654 13.6476 82.7925C13.6427 83.0197 13.6894 83.2453 13.7848 83.4556C13.8802 83.6659 14.0224 83.8565 14.2024 84.0155C14.3825 84.1745 14.5968 84.2986 14.8321 84.3803C15.0673 84.462 15.3187 84.4995 15.5706 84.4905H17.0705V85.8421C17.0893 86.2669 17.2874 86.6691 17.6243 86.9666C17.9612 87.2641 18.4116 87.4344 18.8832 87.4426C19.3548 87.4508 19.8121 87.2964 20.1616 87.0108C20.5111 86.7253 20.7263 86.3303 20.7632 85.9065V84.5548H22.2631C22.7345 84.5379 23.1809 84.3594 23.511 84.0558C23.8412 83.7522 24.0301 83.3464 24.0392 82.9214C24.0484 82.4964 23.877 82.0843 23.5601 81.7693C23.2432 81.4544 22.8048 81.2605 22.3346 81.2272L22.3131 81.2465ZM138.779 81.2465H137.279V79.8949C137.26 79.4701 137.062 79.0679 136.725 78.7704C136.388 78.4729 135.938 78.3026 135.466 78.2944C134.995 78.2862 134.537 78.4406 134.188 78.7261C133.839 79.0117 133.623 79.4067 133.586 79.8305V81.1822H132.086C131.835 81.1644 131.582 81.1931 131.344 81.2665C131.105 81.3399 130.886 81.4565 130.699 81.6091C130.512 81.7617 130.362 81.9472 130.258 82.154C130.153 82.3608 130.097 82.5847 130.092 82.8118C130.087 83.039 130.134 83.2647 130.229 83.475C130.325 83.6853 130.467 83.8758 130.647 84.0348C130.827 84.1938 131.041 84.318 131.277 84.3996C131.512 84.4813 131.763 84.5188 132.015 84.5098H133.515V85.8614C133.534 86.2862 133.732 86.6884 134.069 86.9859C134.406 87.2834 134.856 87.4537 135.328 87.4619C135.799 87.4701 136.257 87.3157 136.606 87.0302C136.955 86.7446 137.171 86.3496 137.208 85.9258V84.5741H138.708C139.179 84.5573 139.625 84.3788 139.955 84.0751C140.286 83.7715 140.475 83.3657 140.484 82.9407C140.493 82.5157 140.321 82.1036 140.005 81.7887C139.688 81.4738 139.249 81.2798 138.779 81.2465ZM140.886 17.8803H139.365V16.5094C139.374 16.0621 139.186 15.6298 138.842 15.3075C138.498 14.9852 138.025 14.7994 137.529 14.7908C137.033 14.7823 136.553 14.9518 136.195 15.262C135.838 15.5722 135.631 15.9977 135.622 16.445V17.8159H134.101C133.604 17.8074 133.125 17.9769 132.767 18.2871C132.409 18.5973 132.203 19.0228 132.194 19.4701C132.184 19.9173 132.372 20.3496 132.716 20.6719C133.061 20.9942 133.533 21.1801 134.029 21.1886H135.551V22.5596C135.541 23.0068 135.729 23.4391 136.073 23.7614C136.418 24.0837 136.89 24.2695 137.386 24.2781C137.883 24.2866 138.362 24.1171 138.72 23.8069C139.078 23.4967 139.284 23.0712 139.293 22.6239L139.279 21.2401H140.8C141.046 21.2443 141.29 21.2049 141.519 21.124C141.748 21.0432 141.957 20.9225 142.134 20.7689C142.311 20.6153 142.453 20.4318 142.551 20.2288C142.65 20.0258 142.703 19.8074 142.707 19.5859C142.712 19.3645 142.668 19.1444 142.579 18.9382C142.489 18.7319 142.355 18.5437 142.185 18.3841C142.014 18.2245 141.81 18.0968 141.585 18.0081C141.36 17.9195 141.118 17.8717 140.872 17.8674L140.886 17.8803Z" fill="white"/>
<path d="M22.3131 81.2465V85.2465H23.8497L24.9911 84.2178L22.3131 81.2465ZM20.8132 81.2465H16.8132V85.2465H20.8132V81.2465ZM20.8132 79.8949H24.8132V79.6807L24.7903 79.4677L20.8132 79.8949ZM17.142 79.8112L13.1949 79.1624L13.142 79.4846V79.8112H17.142ZM17.142 81.1629V85.1629H21.142V81.1629H17.142ZM15.642 81.1629L15.3595 85.1529L15.5006 85.1629H15.642V81.1629ZM15.5706 84.4905V80.4905H15.499L15.4274 80.493L15.5706 84.4905ZM17.0705 84.4905H21.0705V80.4905H17.0705V84.4905ZM17.0705 85.8421H13.0705V85.9303L13.0744 86.0184L17.0705 85.8421ZM20.7632 85.9065L24.7481 86.2539L24.7632 86.0805V85.9065H20.7632ZM20.7632 84.5548V80.5548H16.7632V84.5548H20.7632ZM22.2631 84.5548V88.5548H22.3347L22.4063 88.5523L22.2631 84.5548ZM22.3346 81.2272L22.617 77.2372L20.9202 77.1171L19.6566 78.256L22.3346 81.2272ZM138.779 81.2465L139.062 77.2565L138.92 77.2465H138.779V81.2465ZM137.279 81.2465H133.279V85.2465H137.279V81.2465ZM137.279 79.8949H141.279V79.8067L141.275 79.7186L137.279 79.8949ZM136.725 78.7704L139.373 75.7719L136.725 78.7704ZM133.586 79.8305L129.602 79.4831L129.586 79.6565V79.8305H133.586ZM133.586 81.1822V85.1822H137.586V81.1822H133.586ZM132.086 81.1822L131.804 85.1722L131.945 85.1822H132.086V81.1822ZM132.015 84.5098V80.5098H131.943L131.872 80.5123L132.015 84.5098ZM133.515 84.5098H137.515V80.5098H133.515V84.5098ZM133.515 85.8614H129.515V85.9496L129.519 86.0377L133.515 85.8614ZM137.208 85.9258L141.193 86.2732L141.208 86.0998V85.9258H137.208ZM137.208 84.5741V80.5741H133.208V84.5741H137.208ZM138.708 84.5741V88.5741H138.779L138.851 88.5716L138.708 84.5741ZM140.886 17.8803V21.8803H151.302L143.563 14.9086L140.886 17.8803ZM139.365 17.8803H135.365V21.8803H139.365V17.8803ZM139.365 16.5094L135.366 16.4247L135.365 16.467V16.5094H139.365ZM135.622 16.445L131.623 16.3603L131.622 16.4026V16.445H135.622ZM135.622 17.8159V21.8159H139.622V17.8159H135.622ZM134.101 17.8159L134.032 21.8153L134.066 21.8159H134.101V17.8159ZM134.029 21.1886L133.96 25.188L133.995 25.1886H134.029V21.1886ZM135.551 21.1886H139.551V17.1886H135.551V21.1886ZM135.551 22.5596L139.55 22.6442L139.551 22.6019V22.5596H135.551ZM139.293 22.6239L143.292 22.7086L143.294 22.6456L143.293 22.5826L139.293 22.6239ZM139.279 21.2401V17.2401H135.237L135.279 21.2814L139.279 21.2401ZM140.8 21.2401L140.869 17.2407L140.835 17.2401H140.8V21.2401ZM141.585 18.0081L140.12 21.7302L141.585 18.0081ZM140.872 17.8674L140.941 13.868L130.253 13.6842L138.194 20.8392L140.872 17.8674ZM22.3131 77.2465H20.8132V85.2465H22.3131V77.2465ZM24.8132 81.2465V79.8949H16.8132V81.2465H24.8132ZM24.7903 79.4677C24.6295 77.9699 23.8745 76.6699 22.8039 75.7714L17.6613 81.8996C17.2518 81.5559 16.9099 81.0095 16.8361 80.322L24.7903 79.4677ZM22.8039 75.7714C21.7426 74.8808 20.4246 74.42 19.1098 74.39L18.9275 82.3879C18.5159 82.3786 18.0615 82.2354 17.6613 81.8996L22.8039 75.7714ZM19.1098 74.39C17.7952 74.3601 16.4626 74.7601 15.3653 75.5917L20.1972 81.9676C19.7913 82.2752 19.339 82.3973 18.9275 82.3879L19.1098 74.39ZM15.3653 75.5917C14.2594 76.4297 13.4385 77.6805 13.1949 79.1624L21.089 80.46C20.9778 81.1366 20.6117 81.6535 20.1972 81.9676L15.3653 75.5917ZM13.142 79.8112V81.1629H21.142V79.8112H13.142ZM17.142 77.1629H15.642V85.1629H17.142V77.1629ZM15.9245 77.1728C15.1855 77.1205 14.4379 77.2041 13.7229 77.4241L16.0757 85.0703C15.838 85.1434 15.5959 85.1696 15.3595 85.1529L15.9245 77.1728ZM13.7229 77.4241C13.0078 77.6441 12.3248 78.0011 11.7236 78.4923L16.7854 84.6873C16.5578 84.8733 16.3137 84.997 16.0757 85.0703L13.7229 77.4241ZM11.7236 78.4923C11.1215 78.9843 10.6091 79.6053 10.2421 80.3325L17.3842 83.9368C17.2259 84.2504 17.0139 84.5006 16.7854 84.6873L11.7236 78.4923ZM10.2421 80.3325C9.87422 81.0616 9.66643 81.8707 9.64848 82.7067L17.6466 82.8784C17.6384 83.26 17.5434 83.6214 17.3842 83.9368L10.2421 80.3325ZM9.64848 82.7067C9.63054 83.5428 9.80349 84.3618 10.1422 85.1084L17.4274 81.8029C17.5753 82.1289 17.6548 82.4965 17.6466 82.8784L9.64848 82.7067ZM10.1422 85.1084C10.4801 85.8531 10.9694 86.4969 11.5549 87.0139L16.8499 81.017C17.0753 81.216 17.2803 81.4788 17.4274 81.8029L10.1422 85.1084ZM11.5549 87.0139C12.1396 87.5302 12.8116 87.9131 13.5202 88.1591L16.144 80.6016C16.382 80.6842 16.6255 80.8188 16.8499 81.017L11.5549 87.0139ZM13.5202 88.1591C14.2285 88.405 14.9736 88.5144 15.7138 88.4879L15.4274 80.493C15.6637 80.4846 15.9062 80.519 16.144 80.6016L13.5202 88.1591ZM15.5706 88.4905H17.0705V80.4905H15.5706V88.4905ZM13.0705 84.4905V85.8421H21.0705V84.4905H13.0705ZM13.0744 86.0184C13.144 87.5953 13.8779 88.9948 14.9768 89.9651L20.2718 83.9682C20.6968 84.3434 21.0346 84.9384 21.0666 85.6658L13.0744 86.0184ZM14.9768 89.9651C16.0641 90.9251 17.442 91.4181 18.8135 91.442L18.9529 83.4432C19.3811 83.4507 19.8584 83.6032 20.2718 83.9682L14.9768 89.9651ZM18.8135 91.442C20.1849 91.4659 21.5749 91.0215 22.6925 90.1083L17.6307 83.9134C18.0493 83.5713 18.5248 83.4358 18.9529 83.4432L18.8135 91.442ZM22.6925 90.1083C23.8211 89.1861 24.6112 87.8238 24.7481 86.2539L16.7783 85.5591C16.8413 84.8367 17.201 84.2645 17.6307 83.9134L22.6925 90.1083ZM24.7632 85.9065V84.5548H16.7632V85.9065H24.7632ZM20.7632 88.5548H22.2631V80.5548H20.7632V88.5548ZM22.4063 88.5523C23.7773 88.5032 25.1483 87.9845 26.2188 87L20.8033 81.1116C21.2135 80.7344 21.6917 80.5727 22.12 80.5574L22.4063 88.5523ZM26.2188 87C27.3011 86.0046 28.0044 84.5864 28.0383 83.0072L20.0402 82.8355C20.0558 82.1063 20.3812 81.4998 20.8033 81.1116L26.2188 87ZM28.0383 83.0072C28.0722 81.4266 27.429 79.9749 26.3797 78.9322L20.7404 84.6065C20.325 84.1936 20.0245 83.5661 20.0402 82.8355L28.0383 83.0072ZM26.3797 78.9322C25.3429 77.9017 23.9864 77.3341 22.617 77.2372L22.0521 85.2172C21.6233 85.1869 21.1436 85.0072 20.7404 84.6065L26.3797 78.9322ZM19.6566 78.256L19.6351 78.2753L24.9911 84.2178L25.0126 84.1985L19.6566 78.256ZM138.779 77.2465H137.279V85.2465H138.779V77.2465ZM141.279 81.2465V79.8949H133.279V81.2465H141.279ZM141.275 79.7186C141.206 78.1417 140.472 76.7422 139.373 75.7719L134.078 81.7688C133.653 81.3936 133.315 80.7986 133.283 80.0711L141.275 79.7186ZM139.373 75.7719C138.286 74.8119 136.908 74.3189 135.536 74.295L135.397 82.2938C134.968 82.2863 134.491 82.1338 134.078 81.7688L139.373 75.7719ZM135.536 74.295C134.165 74.2711 132.775 74.7155 131.657 75.6287L136.719 81.8236C136.3 82.1657 135.825 82.3012 135.397 82.2938L135.536 74.295ZM131.657 75.6287C130.528 76.5508 129.738 77.9132 129.602 79.4831L137.571 80.1779C137.508 80.9003 137.149 81.4725 136.719 81.8236L131.657 75.6287ZM129.586 79.8305V81.1822H137.586V79.8305H129.586ZM133.586 77.1822H132.086V85.1822H133.586V77.1822ZM132.369 77.1922C131.63 77.1398 130.882 77.2234 130.167 77.4434L132.52 85.0896C132.282 85.1627 132.04 85.1889 131.804 85.1722L132.369 77.1922ZM130.167 77.4434C129.452 77.6634 128.769 78.0204 128.168 78.5116L133.23 84.7066C133.002 84.8926 132.758 85.0164 132.52 85.0896L130.167 77.4434ZM128.168 78.5116C127.566 79.0036 127.054 79.6245 126.687 80.3519L133.829 83.9561C133.67 84.2698 133.458 84.5199 133.23 84.7066L128.168 78.5116ZM126.687 80.3519C126.319 81.0809 126.111 81.89 126.093 82.726L134.091 82.8977C134.083 83.2794 133.988 83.6407 133.829 83.9561L126.687 80.3519ZM126.093 82.726C126.075 83.5622 126.248 84.3812 126.587 85.1277L133.872 81.8222C134.02 82.1481 134.099 82.5158 134.091 82.8977L126.093 82.726ZM126.587 85.1277C126.925 85.8724 127.414 86.5162 127.999 87.0332L133.294 81.0363C133.52 81.2353 133.725 81.4981 133.872 81.8222L126.587 85.1277ZM127.999 87.0332C128.584 87.5495 129.256 87.9324 129.965 88.1784L132.588 80.6209C132.826 80.7035 133.07 80.8381 133.294 81.0363L127.999 87.0332ZM129.965 88.1784C130.673 88.4243 131.418 88.5337 132.158 88.5072L131.872 80.5123C132.108 80.5039 132.351 80.5383 132.588 80.6209L129.965 88.1784ZM132.015 88.5098H133.515V80.5098H132.015V88.5098ZM129.515 84.5098V85.8614H137.515V84.5098H129.515ZM129.519 86.0377C129.588 87.6146 130.322 89.0141 131.421 89.9844L136.716 83.9875C137.141 84.3627 137.479 84.9577 137.511 85.6852L129.519 86.0377ZM131.421 89.9844C132.508 90.9444 133.886 91.4374 135.258 91.4613L135.397 83.4625C135.826 83.47 136.303 83.6225 136.716 83.9875L131.421 89.9844ZM135.258 91.4613C136.629 91.4852 138.019 91.0408 139.137 90.1276L134.075 83.9327C134.494 83.5905 134.969 83.4551 135.397 83.4625L135.258 91.4613ZM139.137 90.1276C140.266 89.2055 141.056 87.8431 141.193 86.2732L133.223 85.5784C133.286 84.856 133.645 84.2838 134.075 83.9327L139.137 90.1276ZM141.208 85.9258V84.5741H133.208V85.9258H141.208ZM137.208 88.5741H138.708V80.5741H137.208V88.5741ZM138.851 88.5716C140.222 88.5225 141.593 88.0038 142.663 87.0193L137.248 81.131C137.658 80.7537 138.136 80.592 138.564 80.5767L138.851 88.5716ZM142.663 87.0193C143.746 86.0239 144.449 84.6058 144.483 83.0265L136.485 82.8548C136.5 82.1256 136.826 81.5191 137.248 81.131L142.663 87.0193ZM144.483 83.0265C144.517 81.4458 143.873 79.9942 142.824 78.9515L137.185 84.6258C136.769 84.213 136.469 83.5855 136.485 82.8548L144.483 83.0265ZM142.824 78.9515C141.787 77.921 140.431 77.3535 139.062 77.2565L138.497 85.2365C138.068 85.2062 137.588 85.0265 137.185 84.6258L142.824 78.9515ZM140.886 13.8803H139.365V21.8803H140.886V13.8803ZM143.365 17.8803V16.5094H135.365V17.8803H143.365ZM143.364 16.594C143.399 14.9432 142.698 13.4386 141.576 12.3875L136.108 18.2275C135.674 17.821 135.35 17.181 135.366 16.4247L143.364 16.594ZM141.576 12.3875C140.467 11.3495 139.028 10.816 137.598 10.7914L137.46 18.7902C137.022 18.7827 136.528 18.621 136.108 18.2275L141.576 12.3875ZM137.598 10.7914C136.167 10.7668 134.716 11.2501 133.574 12.2403L138.816 18.2837C138.39 18.6535 137.898 18.7978 137.46 18.7902L137.598 10.7914ZM133.574 12.2403C132.419 13.2422 131.658 14.7111 131.623 16.3603L139.621 16.5297C139.605 17.2844 139.256 17.9022 138.816 18.2837L133.574 12.2403ZM131.622 16.445V17.8159H139.622V16.445H131.622ZM135.622 13.8159H134.101V21.8159H135.622V13.8159ZM134.169 13.8165C132.739 13.7919 131.288 14.2752 130.146 15.2654L135.388 21.3088C134.962 21.6786 134.47 21.8229 134.032 21.8153L134.169 13.8165ZM130.146 15.2654C128.991 16.2673 128.229 17.7362 128.195 19.3854L136.193 19.5548C136.177 20.3095 135.828 20.9273 135.388 21.3088L130.146 15.2654ZM128.195 19.3854C128.16 21.0362 128.86 22.5408 129.983 23.592L135.45 17.7519C135.884 18.1585 136.209 18.7984 136.193 19.5548L128.195 19.3854ZM129.983 23.592C131.091 24.63 132.53 25.1634 133.96 25.188L134.098 17.1892C134.536 17.1967 135.03 17.3584 135.45 17.7519L129.983 23.592ZM134.029 25.1886H135.551V17.1886H134.029V25.1886ZM131.551 21.1886V22.5596H139.551V21.1886H131.551ZM131.551 22.4749C131.517 24.1257 132.217 25.6303 133.34 26.6814L138.807 20.8414C139.241 21.2479 139.566 21.8879 139.55 22.6442L131.551 22.4749ZM133.34 26.6814C134.448 27.7195 135.887 28.2529 137.317 28.2775L137.455 20.2787C137.893 20.2862 138.387 20.4479 138.807 20.8414L133.34 26.6814ZM137.317 28.2775C138.748 28.3021 140.199 27.8188 141.341 26.8286L136.099 20.7852C136.525 20.4154 137.017 20.2711 137.455 20.2787L137.317 28.2775ZM141.341 26.8286C142.496 25.8267 143.257 24.3578 143.292 22.7086L135.294 22.5392C135.31 21.7845 135.659 21.1667 136.099 20.7852L141.341 26.8286ZM143.293 22.5826L143.279 21.1988L135.279 21.2814L135.293 22.6652L143.293 22.5826ZM139.279 25.2401H140.8V17.2401H139.279V25.2401ZM140.732 25.2395C141.448 25.2518 142.167 25.1374 142.852 24.8956L140.187 17.3525C140.414 17.2724 140.644 17.2368 140.869 17.2407L140.732 25.2395ZM142.852 24.8956C143.536 24.6538 144.186 24.2843 144.755 23.7906L139.513 17.7473C139.728 17.5608 139.96 17.4326 140.187 17.3525L142.852 24.8956ZM144.755 23.7906C145.325 23.2962 145.807 22.6832 146.151 21.9734L138.952 18.4843C139.099 18.1805 139.297 17.9344 139.513 17.7473L144.755 23.7906ZM146.151 21.9734C146.496 21.2621 146.689 20.4784 146.706 19.6706L138.708 19.5013C138.716 19.1364 138.804 18.7896 138.952 18.4843L146.151 21.9734ZM146.706 19.6706C146.724 18.8627 146.563 18.07 146.247 17.3425L138.911 20.5339C138.774 20.2187 138.701 19.8663 138.708 19.5013L146.706 19.6706ZM146.247 17.3425C145.931 16.6164 145.472 15.9821 144.918 15.4641L139.451 21.3041C139.238 21.1053 139.047 20.8475 138.911 20.5339L146.247 17.3425ZM144.918 15.4641C144.366 14.9468 143.728 14.5526 143.05 14.286L140.12 21.7302C139.893 21.6409 139.662 21.5023 139.451 21.3041L144.918 15.4641ZM143.05 14.286C142.373 14.0195 141.657 13.8803 140.941 13.868L140.803 21.8668C140.578 21.863 140.347 21.8194 140.12 21.7302L143.05 14.286ZM138.194 20.8392L138.209 20.8521L143.563 14.9086L143.549 14.8957L138.194 20.8392Z" fill="white" mask="url(#path-4-inside-1_2202_2791)"/>
<path d="M123.085 45.6725C123.085 45.6725 123.084 45.674 123.083 45.6768C123.083 45.6739 123.084 45.6725 123.085 45.6725ZM123.053 45.6868C123.057 45.691 123.061 45.6949 123.065 45.6984C123.061 45.7019 123.057 45.7058 123.053 45.71C123 45.7572 122.892 45.816 122.73 45.816C122.568 45.816 122.459 45.7572 122.407 45.71C122.402 45.7058 122.398 45.7019 122.395 45.6984C122.398 45.6949 122.402 45.691 122.407 45.6868C122.459 45.6395 122.568 45.5808 122.73 45.5808C122.892 45.5808 123 45.6395 123.053 45.6868ZM122.375 45.6725C122.375 45.6725 122.376 45.6739 122.377 45.6768C122.375 45.674 122.375 45.6725 122.375 45.6725ZM122.375 45.7243C122.375 45.7243 122.375 45.7228 122.377 45.72C122.376 45.7229 122.375 45.7243 122.375 45.7243ZM123.083 45.72C123.084 45.7228 123.085 45.7243 123.085 45.7243C123.084 45.7243 123.083 45.7229 123.083 45.72Z" fill="white" stroke="white" stroke-width="4"/>
<path d="M60.8971 17.1272H59.0686C57.3618 17.1272 55.6718 17.4302 54.095 18.019C52.5183 18.6078 51.0857 19.4708 49.8792 20.5586C48.6726 21.6465 47.7158 22.9379 47.0633 24.3591C46.4108 25.7803 46.0754 27.3034 46.0763 28.8414M73.875 24.027V45.6983M73.875 48.5947V51.652M20.3918 112.193V140.564M33.6055 107.526V122.13M33.6055 124.383V128.084" stroke="white" stroke-width="4" stroke-miterlimit="10"/>
</g>
<defs>
<clipPath id="clip0_2202_2791">
<rect width="150" height="150" fill="white"/>
</clipPath>
</defs>
</svg>
