<svg width="248" height="268" viewBox="0 0 248 268" fill="none" xmlns="http://www.w3.org/2000/svg">
<path d="M108.5 132.037L113.342 128.406C118.766 124.338 126.089 123.882 131.976 127.246L138.352 130.889" stroke="white" stroke-width="4"/>
<path d="M96.4445 118.833L104.239 113.845C108.566 111.076 113.409 109.213 118.476 108.368L121.569 107.853C123.552 107.522 125.581 107.594 127.536 108.063L134.213 109.665C137.333 110.414 140.308 111.676 143.015 113.398L151.556 118.833M84.3889 106.204L96.4246 97.6623C100.224 94.9656 104.538 93.0788 109.098 92.1188L113.093 91.2778L122.01 90.3861C123.715 90.2155 125.434 90.2078 127.141 90.363L137.204 91.2778L143.726 93.4518C146.255 94.295 148.661 95.4717 150.88 96.9508L164.759 106.204" stroke="white" stroke-width="4"/>
<path d="M80.3704 179.111H94.1482V142.944H61.4259L53.9704 139.217C49.9066 137.185 46.7616 133.691 45.1663 129.437L44.7709 128.383C42.1994 121.526 42.0296 113.634 46.4619 107.804C56.6822 94.3603 68.32 97.4081 67.1667 95.8704C66.2568 94.6572 69.136 85.9492 72.6294 77.9151C75.6678 70.9275 82.4888 66.6937 90.0651 65.8819L94.1482 65.4445L111.37 67.1667C113.859 55.9687 127.314 49.385 136.842 46.0735C142.279 44.1838 148.214 44.2257 153.693 45.9894C182.701 55.3258 180.492 69.4808 183.13 82.6667L194.881 90.641C197.715 92.5641 200.008 95.1829 201.54 98.2462L204.37 103.907L205.875 112.935C206.02 113.804 206.111 114.683 206.028 115.561C205.517 120.926 202.089 127.183 199.289 131.539C197.09 134.958 193.827 137.531 190.144 139.25L181.352 143.353C179.498 144.218 177.477 144.667 175.431 144.667H153.278V161.889H176.241V181.981" stroke="white" stroke-width="4"/>
<mask id="path-4-inside-1_2296_1646" fill="white">
<path d="M189.445 193.463C189.445 200.755 183.533 206.667 176.241 206.667C168.949 206.667 163.037 200.755 163.037 193.463C163.037 186.171 168.949 180.259 176.241 180.259C183.533 180.259 189.445 186.171 189.445 193.463ZM169.96 193.463C169.96 196.932 172.772 199.743 176.241 199.743C179.709 199.743 182.521 196.932 182.521 193.463C182.521 189.994 179.709 187.183 176.241 187.183C172.772 187.183 169.96 189.994 169.96 193.463Z"/>
</mask>
<path d="M189.445 193.463C189.445 200.755 183.533 206.667 176.241 206.667C168.949 206.667 163.037 200.755 163.037 193.463C163.037 186.171 168.949 180.259 176.241 180.259C183.533 180.259 189.445 186.171 189.445 193.463ZM169.96 193.463C169.96 196.932 172.772 199.743 176.241 199.743C179.709 199.743 182.521 196.932 182.521 193.463C182.521 189.994 179.709 187.183 176.241 187.183C172.772 187.183 169.96 189.994 169.96 193.463Z" fill="white" stroke="white" stroke-width="2" mask="url(#path-4-inside-1_2296_1646)"/>
<mask id="path-5-inside-2_2296_1646" fill="white">
<path d="M81.5185 179.685C81.5185 186.977 75.607 192.889 68.3148 192.889C61.0226 192.889 55.1111 186.977 55.1111 179.685C55.1111 172.393 61.0226 166.481 68.3148 166.481C75.607 166.481 81.5185 172.393 81.5185 179.685ZM62.0344 179.685C62.0344 183.154 64.8462 185.966 68.3148 185.966C71.7834 185.966 74.5952 183.154 74.5952 179.685C74.5952 176.217 71.7834 173.405 68.3148 173.405C64.8462 173.405 62.0344 176.217 62.0344 179.685Z"/>
</mask>
<path d="M81.5185 179.685C81.5185 186.977 75.607 192.889 68.3148 192.889C61.0226 192.889 55.1111 186.977 55.1111 179.685C55.1111 172.393 61.0226 166.481 68.3148 166.481C75.607 166.481 81.5185 172.393 81.5185 179.685ZM62.0344 179.685C62.0344 183.154 64.8462 185.966 68.3148 185.966C71.7834 185.966 74.5952 183.154 74.5952 179.685C74.5952 176.217 71.7834 173.405 68.3148 173.405C64.8462 173.405 62.0344 176.217 62.0344 179.685Z" fill="white" stroke="white" stroke-width="2" mask="url(#path-5-inside-2_2296_1646)"/>
<path d="M126 144.667C126 143.562 125.105 142.667 124 142.667C122.895 142.667 122 143.562 122 144.667H126ZM122 144.667V190.593H126V144.667H122Z" fill="white"/>
<path d="M137.278 202.648C137.278 209.664 131.59 215.352 124.574 215.352C117.558 215.352 111.87 209.664 111.87 202.648C111.87 195.632 117.558 189.944 124.574 189.944C131.59 189.944 137.278 195.632 137.278 202.648ZM117.794 202.648C117.794 206.393 120.829 209.429 124.574 209.429C128.319 209.429 131.354 206.393 131.354 202.648C131.354 198.903 128.319 195.868 124.574 195.868C120.829 195.868 117.794 198.903 117.794 202.648Z" fill="white" stroke="white"/>
</svg>
