<svg width="150" height="150" viewBox="0 0 150 150" fill="none" xmlns="http://www.w3.org/2000/svg">
<path d="M45.5129 131.357V107.196C38.6482 103.224 32.7887 97.7271 28.3871 91.1298C23.9855 84.5325 21.1598 77.0115 20.1282 69.1481C19.0966 61.2846 19.8869 53.2892 22.4379 45.7799C24.9889 38.2705 29.2324 31.4482 34.8403 25.8403C40.4482 20.2324 47.2705 15.9889 54.7799 13.4379C62.2892 10.8869 70.2846 10.0966 78.1481 11.1282C86.0115 12.1598 93.5325 14.9855 100.13 19.3871C106.727 23.7887 112.224 29.6482 116.196 36.5129M97.2436 131.357V109.814H114.487C116.774 109.812 118.967 108.902 120.584 107.285C122.201 105.668 123.111 103.475 123.114 101.188V79.6357M67.0557 58.065H19.81" stroke="white" stroke-width="6" stroke-linecap="round" stroke-linejoin="round"/>
<path d="M101.552 36.5128V79.6264M67.0651 58.065C67.0638 55.2328 67.6211 52.4282 68.7049 49.8116C69.7887 47.195 71.3779 44.8178 73.3814 42.816C75.3849 40.8142 77.7635 39.2271 80.381 38.1456C82.9985 37.064 85.8036 36.5092 88.6358 36.5128H131.071C133.534 36.5128 135.896 37.4911 137.637 39.2326C139.379 40.974 140.357 43.3358 140.357 45.7985V70.3407C140.357 72.8034 139.379 75.1653 137.637 76.9067C135.896 78.6481 133.534 79.6264 131.071 79.6264H88.6265C85.7943 79.6288 82.9895 79.0728 80.3724 77.9901C77.7554 76.9074 75.3775 75.3193 73.3748 73.3167C71.3722 71.314 69.7841 68.9361 68.7014 66.3191C67.6187 63.702 67.0626 60.8971 67.0651 58.065Z" stroke="white" stroke-width="6" stroke-linecap="round" stroke-linejoin="round"/>
</svg>
