<svg width="100" height="100" viewBox="0 0 100 100" fill="none" xmlns="http://www.w3.org/2000/svg">
<mask id="path-1-outside-1_1350_2724" maskUnits="userSpaceOnUse" x="4" y="6.49396" width="89" height="69" fill="black">
<rect fill="white" x="4" y="6.49396" width="89" height="69"/>
<path fill-rule="evenodd" clip-rule="evenodd" d="M36.6543 8.49396H52.6792V16.141L45.0161 16.141V23.7881L36.6538 23.788V31.4351L28.9937 31.4351V37.7452H91V46.4083H28.9937V52.4645H12.9688V46.4083H6V37.7452H12.9688V31.4351L20.6289 31.4351V23.788L28.9912 23.7881V16.141L36.6543 16.141V8.49396ZM37.3511 52.4646H21.3262V60.1116H28.9912V65.8469L36.6543 65.8469V73.494H52.6792V65.8469L45.0161 65.8469V58.1999H37.3511V52.4646Z"/>
</mask>
<path fill-rule="evenodd" clip-rule="evenodd" d="M36.6543 8.49396H52.6792V16.141L45.0161 16.141V23.7881L36.6538 23.788V31.4351L28.9937 31.4351V37.7452H91V46.4083H28.9937V52.4645H12.9688V46.4083H6V37.7452H12.9688V31.4351L20.6289 31.4351V23.788L28.9912 23.7881V16.141L36.6543 16.141V8.49396ZM37.3511 52.4646H21.3262V60.1116H28.9912V65.8469L36.6543 65.8469V73.494H52.6792V65.8469L45.0161 65.8469V58.1999H37.3511V52.4646Z" fill="white"/>
<path d="M52.6792 8.49396H54.6792V6.49396H52.6792V8.49396ZM36.6543 8.49396V6.49396H34.6543V8.49396H36.6543ZM52.6792 16.141L52.6792 18.141L54.6792 18.141V16.141H52.6792ZM45.0161 16.141L45.0161 14.141L43.0161 14.141V16.141H45.0161ZM45.0161 23.7881L45.0161 25.7881L47.0161 25.7881V23.7881H45.0161ZM36.6538 23.788L36.6538 21.788L34.6538 21.788V23.788H36.6538ZM36.6538 31.4351L36.6538 33.4351L38.6538 33.4351V31.4351H36.6538ZM28.9937 31.4351L28.9937 29.4351L26.9937 29.4351V31.4351H28.9937ZM28.9937 37.7452H26.9937V39.7452H28.9937V37.7452ZM91 37.7452H93V35.7452H91V37.7452ZM91 46.4083V48.4083H93V46.4083H91ZM28.9937 46.4083V44.4083H26.9937V46.4083H28.9937ZM28.9937 52.4645V54.4645H30.9937V52.4645H28.9937ZM12.9688 52.4645H10.9688V54.4645H12.9688V52.4645ZM12.9688 46.4083H14.9688V44.4083H12.9688V46.4083ZM6 46.4083H4V48.4083H6V46.4083ZM6 37.7452V35.7452H4V37.7452H6ZM12.9688 37.7452V39.7452H14.9688V37.7452H12.9688ZM12.9688 31.4351L12.9688 29.4351L10.9688 29.4351V31.4351H12.9688ZM20.6289 31.4351L20.6289 33.4351L22.6289 33.4351V31.4351H20.6289ZM20.6289 23.788L20.6289 21.788L18.6289 21.788V23.788H20.6289ZM28.9912 23.7881L28.9912 25.7881L30.9912 25.7881V23.7881H28.9912ZM28.9912 16.141L28.9912 14.141L26.9912 14.141V16.141H28.9912ZM36.6543 16.141L36.6543 18.141L38.6543 18.141V16.141H36.6543ZM21.3262 52.4646V50.4646H19.3262V52.4646H21.3262ZM37.3511 52.4646H39.3511V50.4646H37.3511V52.4646ZM21.3262 60.1116H19.3262V62.1116H21.3262V60.1116ZM28.9912 60.1116H30.9912V58.1116H28.9912V60.1116ZM28.9912 65.8469H26.9912V67.8469L28.9912 67.8469L28.9912 65.8469ZM36.6543 65.8469H38.6543V63.8469L36.6543 63.8469L36.6543 65.8469ZM36.6543 73.494H34.6543V75.494H36.6543V73.494ZM52.6792 73.494V75.494H54.6792V73.494H52.6792ZM52.6792 65.8469H54.6792V63.8469L52.6792 63.8469L52.6792 65.8469ZM45.0161 65.8469H43.0161V67.8469L45.0161 67.8469L45.0161 65.8469ZM45.0161 58.1999H47.0161V56.1999H45.0161V58.1999ZM37.3511 58.1999H35.3511V60.1999H37.3511V58.1999ZM52.6792 6.49396H36.6543V10.494H52.6792V6.49396ZM54.6792 16.141V8.49396H50.6792V16.141H54.6792ZM45.0161 18.141L52.6792 18.141L52.6792 14.141L45.0161 14.141L45.0161 18.141ZM47.0161 23.7881V16.141H43.0161V23.7881H47.0161ZM36.6538 25.788L45.0161 25.7881L45.0161 21.7881L36.6538 21.788L36.6538 25.788ZM38.6538 31.4351V23.788H34.6538V31.4351H38.6538ZM28.9937 33.4351L36.6538 33.4351L36.6538 29.4351L28.9937 29.4351L28.9937 33.4351ZM30.9937 37.7452V31.4351H26.9937V37.7452H30.9937ZM91 35.7452H28.9937V39.7452H91V35.7452ZM93 46.4083V37.7452H89V46.4083H93ZM28.9937 48.4083H91V44.4083H28.9937V48.4083ZM30.9937 52.4645V46.4083H26.9937V52.4645H30.9937ZM12.9688 54.4645H28.9937V50.4645H12.9688V54.4645ZM10.9688 46.4083V52.4645H14.9688V46.4083H10.9688ZM6 48.4083H12.9688V44.4083H6V48.4083ZM4 37.7452V46.4083H8V37.7452H4ZM12.9688 35.7452H6V39.7452H12.9688V35.7452ZM10.9688 31.4351V37.7452H14.9688V31.4351H10.9688ZM20.6289 29.4351L12.9688 29.4351L12.9687 33.4351L20.6289 33.4351L20.6289 29.4351ZM18.6289 23.788V31.4351H22.6289V23.788H18.6289ZM28.9912 21.7881L20.6289 21.788L20.6289 25.788L28.9912 25.7881L28.9912 21.7881ZM26.9912 16.141V23.7881H30.9912V16.141H26.9912ZM36.6543 14.141L28.9912 14.141L28.9912 18.141L36.6543 18.141L36.6543 14.141ZM34.6543 8.49396V16.141H38.6543V8.49396H34.6543ZM21.3262 54.4646H37.3511V50.4646H21.3262V54.4646ZM23.3262 60.1116V52.4646H19.3262V60.1116H23.3262ZM28.9912 58.1116H21.3262V62.1116H28.9912V58.1116ZM30.9912 65.8469V60.1116H26.9912V65.8469H30.9912ZM36.6543 63.8469L28.9912 63.8469L28.9912 67.8469L36.6543 67.8469L36.6543 63.8469ZM38.6543 73.494V65.8469H34.6543V73.494H38.6543ZM52.6792 71.494H36.6543V75.494H52.6792V71.494ZM50.6792 65.8469V73.494H54.6792V65.8469H50.6792ZM45.0161 67.8469L52.6792 67.8469L52.6792 63.8469L45.0161 63.8469L45.0161 67.8469ZM43.0161 58.1999V65.8469H47.0161V58.1999H43.0161ZM37.3511 60.1999H45.0161V56.1999H37.3511V60.1999ZM35.3511 52.4646V58.1999H39.3511V52.4646H35.3511Z" fill="black" mask="url(#path-1-outside-1_1350_2724)"/>
</svg>
