<svg width="1522" height="1244" viewBox="0 0 1522 1244" fill="none" xmlns="http://www.w3.org/2000/svg">
<path d="M138.837 462.787V462.8M208.171 462.787V462.8M277.506 462.787V462.8M346.84 462.787V462.8M416.175 462.787V462.8" stroke="black" stroke-width="15" stroke-linecap="round" stroke-linejoin="round"/>
<path d="M69.3345 1059.84V1059.85M138.669 1059.84V1059.85M208.003 1059.84V1059.85M277.338 1059.84V1059.85M346.672 1059.84V1059.85" stroke="black" stroke-width="15" stroke-linecap="round" stroke-linejoin="round"/>
<g clip-path="url(#clip0_1309_1315)">
<path d="M400.776 808.892H400.791M400.776 742.514H400.791M400.776 676.136H400.791M400.776 609.758H400.791M400.776 543.379H400.791" stroke="black" stroke-width="15" stroke-linecap="round" stroke-linejoin="round"/>
</g>
<g clip-path="url(#clip1_1309_1315)">
<path d="M400.776 1138.69H400.791M400.776 1072.32H400.791M400.776 1005.94H400.791M400.776 939.56H400.791M400.776 873.181H400.791" stroke="black" stroke-width="15" stroke-linecap="round" stroke-linejoin="round"/>
</g>
<path d="M416.334 728.341V728.354M485.669 728.341V728.354M555.003 728.341V728.354M624.338 728.341V728.354M693.672 728.341V728.354" stroke="black" stroke-width="15" stroke-linecap="round" stroke-linejoin="round"/>
<path d="M485.341 463.287V463.3M554.676 463.287V463.3M624.01 463.287V463.3M693.344 463.287V463.3M762.679 463.287V463.3" stroke="black" stroke-width="15" stroke-linecap="round" stroke-linejoin="round"/>
<path d="M831.845 463.287V463.3M901.18 463.287V463.3M970.514 463.287V463.3M1039.85 463.287V463.3M1109.18 463.287V463.3" stroke="black" stroke-width="15" stroke-linecap="round" stroke-linejoin="round"/>
<path d="M1175.33 463.287V463.3M1244.66 463.287V463.3M1314 463.287V463.3M1383.33 463.287V463.3M1452.67 463.287V463.3" stroke="black" stroke-width="15" stroke-linecap="round" stroke-linejoin="round"/>
<path d="M693.334 728.341V728.354M762.669 728.341V728.354M832.003 728.341V728.354M901.338 728.341V728.354M970.672 728.341V728.354" stroke="black" stroke-width="15" stroke-linecap="round" stroke-linejoin="round"/>
<g clip-path="url(#clip2_1309_1315)">
<path d="M928.24 1069.62H928.268M928.24 1003.24H928.268M928.24 936.866H928.268M928.24 870.488H928.268M928.24 804.11H928.268" stroke="black" stroke-width="15" stroke-linecap="round" stroke-linejoin="round"/>
</g>
<path d="M986.334 931.341V931.366M1055.67 931.341V931.366M1125 931.341V931.366M1194.34 931.341V931.366M1263.67 931.341V931.366" stroke="black" stroke-width="15" stroke-linecap="round" stroke-linejoin="round"/>
<path d="M485.341 1137.89V1137.92M554.676 1137.89V1137.92M624.01 1137.89V1137.92M693.344 1137.89V1137.92M762.679 1137.89V1137.92" stroke="black" stroke-width="15" stroke-linecap="round" stroke-linejoin="round"/>
<path d="M994.058 476.69L995.683 478.388C994.233 479.776 992.288 480.538 990.282 480.538C988.784 480.538 987.311 480.114 986.049 479.306C984.786 478.498 983.785 477.339 983.189 475.962C982.592 474.583 982.434 473.059 982.74 471.587C983.045 470.117 983.797 468.782 984.88 467.744C985.963 466.708 987.329 466.014 988.801 465.733C990.272 465.453 991.798 465.596 993.191 466.148M994.058 476.69L993.191 466.148M994.058 476.69L995.683 478.388C997.137 476.996 997.975 475.084 997.975 473.066C997.975 471.563 997.509 470.104 996.65 468.873C995.792 467.643 994.584 466.701 993.191 466.148M994.058 476.69L992.269 468.472L993.191 466.148M963.35 514.503V514.502V474.725C963.362 464.877 967.453 455.413 974.763 448.415C982.076 441.413 992.013 437.457 1002.4 437.445C1012.79 437.457 1022.72 441.413 1030.04 448.415C1037.35 455.413 1041.44 464.878 1041.45 474.726V514.502V514.503C1041.45 514.633 1041.41 514.77 1041.33 514.897C1041.24 515.025 1041.11 515.143 1040.94 515.222C1040.76 515.301 1040.56 515.334 1040.36 515.31C1040.16 515.286 1039.98 515.209 1039.84 515.1L1039.84 515.099L1029.34 506.874L1027.79 505.667L1026.25 506.874L1015.75 515.099L1015.75 515.099C1015.58 515.232 1015.35 515.316 1015.1 515.316C1014.85 515.316 1014.62 515.232 1014.45 515.099L1014.45 515.099L1003.94 506.874L1002.4 505.667L1000.86 506.874L990.355 515.099L990.355 515.099C990.184 515.232 989.955 515.316 989.704 515.316C989.453 515.316 989.223 515.232 989.053 515.099L989.053 515.099L978.548 506.874L977.007 505.667L975.465 506.874L964.965 515.099L964.964 515.1C964.825 515.209 964.645 515.286 964.443 515.31C964.24 515.334 964.038 515.301 963.863 515.222C963.688 515.143 963.557 515.025 963.472 514.897C963.388 514.77 963.35 514.633 963.35 514.503ZM1010.29 479.306C1011.55 480.114 1013.02 480.538 1014.52 480.538C1016.53 480.538 1018.47 479.776 1019.92 478.388C1021.37 476.996 1022.21 475.084 1022.21 473.066C1022.21 471.563 1021.75 470.104 1020.89 468.873C1020.03 467.643 1018.82 466.701 1017.43 466.148C1016.04 465.596 1014.51 465.453 1013.04 465.733C1011.57 466.014 1010.2 466.708 1009.12 467.744C1008.03 468.782 1007.28 470.117 1006.98 471.587C1006.67 473.059 1006.83 474.583 1007.43 475.962C1008.02 477.339 1009.02 478.498 1010.29 479.306Z" fill="#40E0D0" stroke="black" stroke-width="5"/>
<g clip-path="url(#clip3_1309_1315)">
<path d="M447.738 504.242L447.742 504.249C447.76 504.278 447.768 504.302 447.771 504.32C447.774 504.338 447.774 504.356 447.769 504.375C447.764 504.394 447.754 504.421 447.73 504.453L450.524 506.561L447.73 504.453C447.706 504.484 447.668 504.521 447.613 504.553L447.612 504.554L411.807 525.678L406.698 528.693L411.807 531.707L447.612 552.832L447.613 552.833C447.668 552.865 447.706 552.901 447.73 552.933L450.524 550.825L447.73 552.933C447.754 552.964 447.764 552.991 447.769 553.011C447.774 553.03 447.774 553.048 447.771 553.065C447.768 553.083 447.76 553.108 447.742 553.137L447.738 553.143C442.169 561.793 433.786 568.495 423.837 572.202C413.887 575.909 402.938 576.408 392.66 573.618C382.383 570.829 373.366 564.913 366.961 556.799C360.558 548.688 357.109 538.82 357.111 528.693L357.111 528.692C357.109 518.566 360.558 508.697 366.961 500.586C373.366 492.473 382.383 486.557 392.66 483.767C402.938 480.978 413.887 481.477 423.837 485.184C433.786 488.89 442.169 495.593 447.738 504.242ZM398.129 517.039C401.109 517.039 403.995 515.907 406.146 513.848C408.302 511.784 409.544 508.95 409.544 505.962C409.544 502.974 408.302 500.141 406.146 498.076C403.995 496.017 401.109 494.885 398.129 494.885C395.15 494.885 392.264 496.017 390.113 498.076C387.956 500.141 386.715 502.974 386.715 505.962C386.715 508.95 387.956 511.784 390.113 513.848C392.264 515.907 395.15 517.039 398.129 517.039Z" fill="#FFC642" stroke="black" stroke-width="7"/>
</g>
<g clip-path="url(#clip4_1309_1315)">
<path d="M972.025 1206.84H972.053" stroke="black" stroke-width="15" stroke-linecap="round" stroke-linejoin="round"/>
</g>
<path d="M832.853 1067.89V1067.92M902.187 1067.89V1067.92M971.521 1067.89V1067.92M1040.86 1067.89V1067.92M1110.19 1067.89V1067.92" stroke="black" stroke-width="15" stroke-linecap="round" stroke-linejoin="round"/>
<path d="M329.334 20.3408V20.3663M398.669 20.3408V20.3663M468.003 20.3408V20.3663M537.338 20.3408V20.3663M606.672 20.3408V20.3663" stroke="black" stroke-width="15" stroke-linecap="round" stroke-linejoin="round"/>
<g clip-path="url(#clip5_1309_1315)">
<path d="M778.24 416.623H778.268M778.24 350.244H778.268M778.24 283.866H778.268M778.24 217.488H778.268M778.24 151.11H778.268" stroke="black" stroke-width="15" stroke-linecap="round" stroke-linejoin="round"/>
</g>
<path d="M776.35 980.503V980.502V940.725C776.362 930.877 780.453 921.413 787.763 914.415C795.076 907.413 805.013 903.457 815.4 903.445C825.788 903.457 835.725 907.413 843.038 914.415C850.348 921.413 854.439 930.878 854.451 940.726V980.502V980.503C854.451 980.633 854.412 980.77 854.329 980.897C854.244 981.025 854.112 981.143 853.938 981.222C853.763 981.301 853.561 981.334 853.358 981.31C853.156 981.286 852.976 981.209 852.837 981.1L852.835 981.099L842.335 972.874L840.794 971.667L839.252 972.874L828.748 981.099L828.748 981.099C828.577 981.232 828.348 981.316 828.097 981.316C827.846 981.316 827.617 981.232 827.446 981.099L827.446 981.099L816.942 972.874L815.4 971.667L813.859 972.874L803.355 981.099L803.355 981.099C803.184 981.232 802.955 981.316 802.704 981.316C802.453 981.316 802.223 981.232 802.053 981.099L802.053 981.099L791.548 972.874L790.007 971.667L788.465 972.874L777.965 981.099L777.964 981.1C777.825 981.209 777.645 981.286 777.443 981.31C777.24 981.334 777.038 981.301 776.863 981.222C776.688 981.143 776.557 981.025 776.472 980.897C776.388 980.77 776.35 980.633 776.35 980.503ZM799.049 945.306C800.311 946.114 801.784 946.538 803.282 946.538C805.288 946.538 807.233 945.776 808.683 944.388C810.137 942.996 810.975 941.084 810.975 939.066C810.975 937.563 810.509 936.104 809.65 934.873C808.792 933.643 807.584 932.701 806.191 932.148C804.798 931.596 803.272 931.453 801.801 931.733C800.329 932.014 798.963 932.708 797.88 933.744C796.797 934.782 796.045 936.117 795.74 937.587C795.434 939.059 795.592 940.583 796.189 941.962C796.785 943.339 797.786 944.498 799.049 945.306ZM823.287 945.306C824.548 946.114 826.021 946.538 827.519 946.538C829.525 946.538 831.47 945.776 832.921 944.388C834.375 942.996 835.213 941.084 835.213 939.066C835.213 937.563 834.747 936.104 833.888 934.873C833.03 933.643 831.821 932.701 830.428 932.148C829.036 931.596 827.51 931.453 826.038 931.733C824.566 932.014 823.2 932.708 822.118 933.744C821.034 934.782 820.283 936.117 819.978 937.587C819.672 939.059 819.83 940.583 820.426 941.962C821.022 943.339 822.024 944.498 823.287 945.306Z" fill="#FF69B4" stroke="black" stroke-width="5"/>
<g clip-path="url(#clip6_1309_1315)">
<path d="M1001.24 830.623H1001.27M1001.24 764.244H1001.27M1001.24 697.866H1001.27M1001.24 631.488H1001.27M1001.24 565.11H1001.27" stroke="black" stroke-width="15" stroke-linecap="round" stroke-linejoin="round"/>
</g>
<defs>
<clipPath id="clip0_1309_1315">
<rect width="398.27" height="35.4732" fill="white" transform="matrix(0 -1 1 0 382.766 890.539)"/>
</clipPath>
<clipPath id="clip1_1309_1315">
<rect width="398.27" height="35.4732" fill="white" transform="matrix(0 -1 1 0 382.766 1220.34)"/>
</clipPath>
<clipPath id="clip2_1309_1315">
<rect width="398.27" height="65.4732" fill="white" transform="matrix(0 -1 1 0 895 1151.27)"/>
</clipPath>
<clipPath id="clip3_1309_1315">
<rect width="110.801" height="106.077" fill="white" transform="translate(354 478)"/>
</clipPath>
<clipPath id="clip4_1309_1315">
<rect width="398.27" height="65.4732" fill="white" transform="matrix(0 -1 1 0 938.785 1554)"/>
</clipPath>
<clipPath id="clip5_1309_1315">
<rect width="398.27" height="65.4732" fill="white" transform="matrix(0 -1 1 0 745 498.27)"/>
</clipPath>
<clipPath id="clip6_1309_1315">
<rect width="398.27" height="65.4732" fill="white" transform="matrix(0 -1 1 0 968 912.27)"/>
</clipPath>
</defs>
</svg>
