<svg width="150" height="150" viewBox="0 0 150 150" fill="none" xmlns="http://www.w3.org/2000/svg">
<g clip-path="url(#clip0_2202_2802)">
<path d="M118.071 143.234L118.424 143.536L118.751 143.206L136.21 125.562L136.53 125.238L136.238 124.889L124.467 110.826C127.453 106.022 129.728 100.813 131.224 95.3579L150.042 93.7713L150.5 93.7327V93.2731V68.3473V67.8876L150.042 67.8491L131.879 66.3201C130.635 60.7994 128.6 55.4871 125.839 50.5474L138.035 35.9776L138.327 35.6286L138.007 35.305L120.552 17.6601L120.225 17.3295L119.872 17.6318L105.963 29.5314C101.233 26.5317 96.09 24.2388 90.697 22.7255L89.1249 3.68895L89.087 3.2301H88.6266H63.9211H63.4607L63.4228 3.68898L61.9072 22.0562C56.4515 23.3156 51.2091 25.3652 46.3459 28.1403L31.9305 15.806L31.5771 15.5037L31.25 15.8343L13.7938 33.4792L13.4737 33.8028L13.7658 34.1518L25.5363 48.2137C22.5514 53.0189 20.2757 58.2299 18.7797 63.6855L-0.0361224 65.2709L-0.494033 65.3095L-0.494141 65.7691L-0.5 90.6925L-0.500108 91.1522L-0.0420651 91.1908L18.1212 92.7243C19.3645 98.2457 21.3996 103.558 24.1634 108.497L11.9647 123.066L11.6725 123.415L11.9925 123.738L29.4453 141.387L29.7724 141.718L30.1258 141.415L45.6661 128.12L46.0461 127.795L45.7209 127.415L42.6728 123.854L42.3478 123.474L41.9679 123.799L30.0952 133.956L19.3564 123.096L30.8814 109.331L31.1109 109.057L30.9258 108.751L30.0574 107.317L30.0573 107.317C26.7429 101.849 24.4433 95.8276 23.2692 89.5426L23.2691 89.542L22.9398 87.7901L22.8696 87.4162L22.4905 87.3842L5.18877 85.9252L5.19209 70.5378L22.9639 69.0401L23.3246 69.0097L23.4083 68.6575L23.8009 67.0063L23.801 67.0058C25.2727 60.7873 27.855 54.8856 31.4238 49.5847L31.4238 49.5846L32.407 48.1233L32.6169 47.8114L32.3756 47.5232L21.1576 34.1226L31.8998 23.2655L45.4988 34.8987L45.7764 35.1362L46.087 34.9439L47.5425 34.0427L47.5426 34.0426C52.9292 30.7052 58.8816 28.3826 65.105 27.1899L65.1055 27.1898L66.8516 26.8535L67.2241 26.7817L67.2553 26.4037L68.6987 8.91643H83.8502L85.3357 26.8842L85.3654 27.2435L85.7157 27.3288L87.3575 27.7284L87.3579 27.7285C93.518 29.2233 99.3526 31.8326 104.573 35.4275L104.574 35.4277L106.057 36.4473L106.374 36.6647L106.666 36.4151L119.905 25.0889L130.645 35.9461L119.123 49.7099L118.894 49.984L119.079 50.2897L119.946 51.7229L119.946 51.7231C123.258 57.1931 125.557 63.2153 126.732 69.5009L126.732 69.5017L127.063 71.2536L127.133 71.6273L127.512 71.6592L144.812 73.1159V88.5033L127.042 90.0034L126.681 90.0338L126.598 90.3859L126.205 92.0359L126.205 92.0363C124.732 98.2541 122.15 104.155 118.582 109.456L117.598 110.918L117.388 111.229L117.629 111.518L128.846 124.918L118.102 135.777L105.801 125.254L105.421 124.929L105.096 125.309L102.049 128.871L101.724 129.251L102.104 129.576L118.071 143.234Z" fill="white" stroke="white"/>
<path d="M94.4897 123.782L94.9885 123.818L95.0245 123.32C95.314 119.313 96.2143 116.2 97.4665 114.515C111.172 96.6679 111.567 79.6104 111.567 79.3769C111.567 59.0138 95.1677 42.4398 75 42.4398C54.8324 42.4398 38.4332 59.0138 38.4332 79.3769C38.4332 79.6099 38.8268 96.6862 52.5052 114.482C53.7698 116.189 54.6541 119.298 54.9203 123.3L54.9534 123.799L55.4524 123.766L60.1294 123.454L60.6283 123.421L60.595 122.922C60.2544 117.809 59.0877 113.808 57.0464 111.058L57.0465 111.058L57.0414 111.052C50.7511 102.868 47.5206 94.9706 45.8626 89.1055C45.0336 86.1728 44.5979 83.7488 44.3695 82.0523C44.2554 81.2041 44.193 80.5379 44.1593 80.0812C44.1425 79.8528 44.1328 79.6769 44.1273 79.5569C44.1224 79.4492 44.121 79.3904 44.1208 79.3789C44.1207 79.3772 44.1207 79.3766 44.1207 79.3769C44.1207 62.1409 57.9812 48.1285 75.0012 48.1285C92.0211 48.1285 105.88 62.1421 105.88 79.3781C105.88 79.3777 105.88 79.3784 105.88 79.3803C105.88 79.3924 105.879 79.4508 105.874 79.5575C105.868 79.6774 105.859 79.8532 105.842 80.0814C105.808 80.5378 105.745 81.2036 105.63 82.0516C105.401 83.7477 104.964 86.1717 104.132 89.1056C102.47 94.9733 99.2332 102.879 92.9339 111.082L92.9296 111.088C90.906 113.803 89.7215 117.801 89.3513 122.909L89.3152 123.407L89.8139 123.444L94.4897 123.782Z" fill="white" stroke="white"/>
<path d="M68.67 85.2595L68.6181 84.7622L68.1208 84.8141L63.4591 85.3004L62.9618 85.3523L63.0137 85.8496L66.9231 123.319L66.975 123.817L67.4724 123.765L72.1352 123.277L72.6324 123.225L72.5806 122.728L68.67 85.2595ZM81.8888 84.8129L81.3915 84.7609L81.3395 85.2582L77.4219 122.729L77.3699 123.226L77.8672 123.278L82.5289 123.766L83.0262 123.818L83.0782 123.32L86.9958 85.8497L87.0478 85.3524L86.5505 85.3004L81.8888 84.8129Z" fill="white" stroke="white"/>
<path d="M53.073 120.673H52.573V121.173V125.861V126.361H53.073H96.9292H97.4292V125.861V121.173V120.673H96.9292H53.073ZM53.073 130.877H52.573V131.377V136.064V136.564H53.073H96.9292H97.4292V136.064V131.377V130.877H96.9292H53.073ZM60.6621 141.082H60.1621V141.582V146.27V146.77H60.6621H89.3402H89.8402V146.27V141.582V141.082H89.3402H60.6621Z" fill="white" stroke="white"/>
<path d="M57.3949 123.475H56.8949V123.975V134.611V135.111H57.3949H62.0824H62.5824V134.611V123.975V123.475H62.0824H57.3949Z" fill="white" stroke="white"/>
</g>
<defs>
<clipPath id="clip0_2202_2802">
<rect width="150" height="150" fill="white"/>
</clipPath>
</defs>
</svg>
