<svg width="92" height="840" viewBox="0 0 92 840" fill="none" xmlns="http://www.w3.org/2000/svg">
<path d="M25.7898 87.3225C16.5091 82.7834 9.02649 75.2523 4.54757 65.9423C0.0686493 56.6324 -1.14582 46.0857 1.0998 36.0014C3.34542 25.9171 8.92038 16.8823 16.9266 10.3526C24.9327 3.82292 34.9039 0.178463 45.2338 0.00638142C55.5637 -0.1657 65.6507 3.14461 73.87 9.40403C82.0892 15.6635 87.962 24.5075 90.5423 34.5114C93.1225 44.5153 92.26 55.0966 88.0937 64.5506C83.9273 74.0045 76.6998 81.7807 67.5753 86.6264L46 46L25.7898 87.3225Z" fill="#F5F512"/>
<circle cx="71" cy="54" r="5" transform="rotate(90 71 54)" fill="black"/>
</svg>